<?xml version="1.0" standalone="no"?>
<!DOCTYPE svg PUBLIC "-//W3C//DTD SVG 20010904//EN"
 "http://www.w3.org/TR/2001/REC-SVG-20010904/DTD/svg10.dtd">
<svg version="1.0" xmlns="http://www.w3.org/2000/svg"
 width="275.000000pt" height="275.000000pt" viewBox="0 0 275.000000 275.000000"
 preserveAspectRatio="xMidYMid meet">
<metadata>
Created by potrace 1.14, written by Peter Selinger 2001-2017
</metadata>
<g transform="translate(0.000000,275.000000) scale(0.100000,-0.100000)"
fill="#000000" stroke="none">
<path d="M1020 2250 c-12 -7 -10 -9 7 -7 12 0 19 5 17 9 -6 10 -6 10 -24 -2z"/>
<path d="M1147 2249 c7 -7 15 -10 18 -7 3 3 -2 9 -12 12 -14 6 -15 5 -6 -5z"/>
<path d="M1490 2250 c0 -5 5 -10 11 -10 5 0 7 5 4 10 -3 6 -8 10 -11 10 -2 0
-4 -4 -4 -10z"/>
<path d="M1056 2232 c-3 -4 4 -9 15 -9 23 -2 25 3 4 10 -8 4 -16 3 -19 -1z"/>
<path d="M1535 2221 c-3 -5 -2 -12 3 -15 5 -3 9 1 9 9 0 17 -3 19 -12 6z"/>
<path d="M1376 2212 c-2 -4 -1 -14 4 -22 7 -11 9 -9 7 8 -1 24 -3 26 -11 14z"/>
<path d="M1477 2198 c9 -10 19 -15 22 -12 3 4 0 9 -7 11 -6 3 -10 8 -8 12 3 4
-1 8 -9 8 -13 0 -12 -4 2 -19z"/>
<path d="M1593 2201 c10 -12 9 -14 -8 -8 l-20 7 20 -15 c11 -9 20 -20 20 -25
0 -4 4 -12 9 -17 5 -5 6 -3 2 5 -10 16 9 15 23 -2 9 -10 8 -15 -3 -19 -8 -3
-20 1 -26 8 -7 8 -16 13 -20 10 -4 -3 -22 1 -39 8 -21 9 -28 16 -21 23 8 8 5
15 -7 25 -16 13 -17 12 -5 -2 10 -14 10 -18 -4 -23 -9 -3 -23 -1 -30 5 -8 6
-14 8 -14 4 0 -4 -6 -3 -12 2 -7 5 -22 9 -33 9 -15 -1 -21 -9 -23 -33 -2 -18
-7 -33 -12 -33 -4 0 -6 10 -4 23 4 20 4 21 -5 2 -6 -14 -5 -23 5 -31 14 -11
14 -60 -1 -84 -5 -9 -4 -11 3 -6 8 5 11 -1 10 -19 -2 -17 -7 -24 -16 -20 -7 2
-10 0 -7 -5 3 -6 15 -10 25 -10 22 0 40 -27 33 -50 -4 -13 -3 -13 6 0 5 8 7
18 5 22 -3 4 2 8 11 8 9 0 13 -5 9 -11 -4 -7 -1 -10 7 -7 8 3 27 -1 42 -9 15
-8 31 -12 36 -9 4 3 15 -4 25 -15 10 -12 24 -18 33 -15 19 8 45 -12 36 -26 -3
-6 0 -8 8 -6 8 3 13 11 11 17 -1 7 8 4 22 -6 13 -10 21 -22 17 -28 -3 -5 -6
-25 -7 -43 -1 -27 2 -31 17 -27 22 7 42 -25 28 -46 -8 -12 -12 -11 -24 5 -8
11 -25 21 -36 23 -18 3 -20 1 -9 -12 7 -8 16 -13 20 -10 4 3 11 -3 14 -12 7
-17 -12 -36 -26 -27 -4 3 -8 0 -8 -5 0 -6 5 -11 12 -11 6 0 8 -3 4 -7 -4 -5
-14 0 -21 10 -7 10 -16 18 -19 18 -21 -3 -26 0 -20 10 4 8 9 7 16 -2 6 -11 8
-9 6 6 -2 11 -7 24 -13 28 -6 5 -1 6 10 2 11 -3 16 -3 12 1 -4 4 0 18 9 32 12
18 12 23 3 17 -8 -3 -5 1 5 9 19 15 12 22 -17 17 -5 -1 -5 4 -1 10 5 8 3 9 -6
4 -9 -6 -11 -4 -6 6 4 8 0 5 -10 -6 -14 -17 -16 -18 -10 -2 4 12 2 16 -6 11
-7 -4 -8 -3 -4 4 4 7 2 10 -6 9 -7 -2 -10 -2 -5 0 11 7 8 20 -6 26 -18 7 -16
-71 2 -82 9 -6 10 -11 3 -15 -6 -3 -17 2 -24 12 -7 10 -20 22 -28 27 -13 7
-13 6 -2 -7 11 -14 10 -18 -5 -27 -10 -6 -13 -11 -8 -11 6 0 16 5 22 11 9 9
17 3 32 -22 12 -19 21 -27 21 -19 0 13 1 13 10 0 13 -20 12 -29 -3 -26 -18 2
-57 43 -49 51 4 3 -2 3 -12 -1 -18 -7 -18 -7 0 -17 26 -13 24 -12 29 -37 3
-16 0 -20 -11 -16 -11 4 -12 2 -4 -14 5 -10 7 -26 3 -36 -5 -13 -3 -15 7 -9 8
5 11 4 6 -3 -3 -6 -17 -9 -30 -6 -15 2 -26 -2 -30 -11 -3 -9 -12 -12 -22 -8
-13 5 -15 3 -9 -8 4 -8 5 -11 0 -7 -4 4 -21 0 -37 -8 -26 -13 -29 -13 -26 0 2
8 -1 14 -7 13 -5 -1 -9 -6 -7 -11 1 -4 -2 -14 -8 -21 -6 -8 -11 -32 -12 -54 0
-23 -5 -41 -10 -41 -7 0 -7 -4 -1 -12 5 -7 10 -35 11 -62 0 -32 7 -55 18 -65
9 -9 14 -10 10 -3 -7 11 6 16 41 15 7 -1 10 3 7 8 -5 9 9 13 34 10 8 -1 20 6
27 16 12 16 13 15 14 -12 1 -72 2 -80 9 -64 4 9 15 15 24 14 11 -2 15 2 11 13
-4 10 -2 13 5 8 7 -4 12 -2 12 6 0 7 8 0 19 -17 12 -21 15 -32 7 -37 -6 -4
-14 2 -18 15 -6 21 -6 21 -7 1 -1 -11 2 -23 5 -27 8 -7 54 13 54 25 0 4 4 8 8
8 17 0 8 -30 -10 -36 -30 -9 -20 -30 14 -26 3 1 9 -5 11 -13 4 -9 0 -12 -13
-10 -13 3 -17 -1 -13 -11 3 -8 9 -14 15 -14 5 0 6 5 2 12 -4 7 -3 8 5 4 6 -4
18 -1 26 8 13 13 13 15 -7 22 -13 5 -26 7 -30 6 -15 -4 -8 16 8 22 22 9 26 8
18 -6 -4 -7 -3 -8 4 -4 7 4 12 2 12 -5 0 -15 11 -6 14 13 7 43 18 59 31 48 8
-7 20 -8 27 -4 11 6 11 5 0 -8 -10 -13 -10 -17 0 -22 7 -3 -3 -3 -22 0 -29 4
-33 3 -22 -8 7 -7 18 -13 25 -13 7 0 12 -4 12 -10 0 -5 -12 -9 -28 -8 -15 1
-25 -2 -22 -7 3 -5 -1 -15 -9 -23 -8 -8 -12 -17 -9 -21 3 -3 12 3 20 14 15 21
60 24 60 3 0 -8 -6 -9 -18 -2 -30 16 -35 9 -10 -12 23 -19 23 -20 5 -33 -10
-8 -24 -12 -30 -9 -7 2 -11 -3 -11 -14 2 -13 -4 -17 -21 -16 -16 2 -21 -1 -16
-10 6 -9 4 -9 -8 1 -11 9 -18 10 -23 2 -3 -5 -1 -10 6 -10 15 0 6 -11 -13 -14
-7 -1 -22 -7 -33 -13 -15 -8 -25 -8 -38 2 -10 7 -18 16 -18 19 3 20 0 26 -8
21 -5 -3 -12 3 -14 12 -4 17 -5 17 -6 0 0 -10 6 -20 14 -23 8 -4 12 -10 9 -15
-2 -5 -14 -3 -25 4 -16 10 -21 9 -29 -3 -5 -8 -8 -21 -5 -27 2 -7 0 -13 -5
-13 -6 0 -10 5 -10 10 0 6 -5 10 -11 10 -5 0 -8 -4 -4 -9 3 -5 1 -12 -4 -15
-5 -4 -12 3 -16 14 -8 25 -17 25 -33 -1 -11 -17 -16 -18 -28 -8 -13 10 -17 10
-24 -1 -4 -7 -15 -10 -23 -7 -11 4 -14 1 -10 -9 4 -10 0 -12 -11 -8 -11 4 -16
1 -16 -11 0 -9 -4 -14 -10 -10 -5 3 -6 13 -3 22 5 13 2 15 -11 10 -11 -4 -19
-1 -23 10 -6 15 -7 15 -13 -2 -7 -20 -36 -29 -46 -14 -5 8 9 13 29 10 4 0 7 4
7 9 0 13 -6 13 -30 0 -14 -8 -25 -4 -49 19 -29 28 -45 29 -18 2 10 -10 8 -12
-8 -9 -25 4 -38 20 -23 29 5 4 -2 7 -16 7 -25 0 -30 -8 -27 -48 0 -10 -1 -11
-5 -2 -3 6 -11 9 -16 6 -6 -4 -8 -3 -5 3 3 5 -6 10 -23 10 -36 0 -65 22 -50
37 7 7 14 6 23 -3 10 -11 10 -13 0 -7 -7 4 -13 3 -13 -2 0 -14 39 -22 47 -10
3 6 1 8 -5 4 -15 -9 -21 15 -10 37 5 10 7 21 5 24 -3 2 -8 -5 -12 -16 -3 -12
-10 -19 -15 -16 -5 3 -7 13 -3 23 3 9 -5 2 -16 -16 -17 -26 -25 -31 -35 -23
-7 6 -23 8 -37 5 -13 -3 -30 -6 -36 -6 -7 -1 -13 -8 -13 -15 0 -9 5 -11 13 -7
25 15 -25 -41 -58 -66 -15 -11 -13 -7 5 15 14 17 29 33 34 36 4 4 2 9 -5 11
-8 3 -21 -7 -30 -21 -9 -15 -26 -27 -37 -28 -18 -1 -19 1 -9 12 6 7 14 9 15 4
2 -5 8 -7 12 -4 5 3 6 13 3 22 -4 11 -3 14 5 9 7 -4 12 -3 12 2 0 6 -7 13 -16
16 -23 9 -24 8 -17 -11 5 -15 3 -14 -10 2 -18 24 -13 37 11 28 15 -6 15 -5 3
10 -7 9 -18 14 -25 10 -6 -4 -5 0 2 9 10 13 10 17 0 21 -11 4 -10 6 0 6 8 1
10 6 5 14 -11 18 -12 36 -2 43 5 3 9 10 9 15 0 6 -6 7 -12 3 -9 -5 -9 -2 1 9
7 9 9 17 4 17 -5 0 -9 15 -9 34 0 19 4 32 8 30 4 -3 8 0 8 5 0 6 -4 11 -10 11
-6 0 0 10 11 21 12 12 17 24 12 28 -17 11 -23 39 -8 37 8 -1 18 -6 22 -11 4
-4 2 -5 -4 -1 -15 8 -18 -10 -4 -19 6 -3 15 3 21 12 10 16 10 15 5 -4 -4 -15
-2 -21 9 -19 19 3 34 16 18 16 -7 0 -11 11 -10 25 1 14 3 25 5 25 1 0 14 -12
28 -27 25 -27 37 -20 13 7 -11 12 -10 12 3 2 9 -6 19 -9 23 -5 4 4 4 -1 0 -12
-7 -18 -6 -18 9 -6 11 9 17 10 17 2 0 -6 -5 -11 -11 -11 -5 0 -7 -5 -4 -10 4
-6 11 -7 17 -4 7 4 8 2 4 -5 -4 -6 -2 -19 6 -28 11 -15 11 -16 -4 -10 -25 9
-23 3 13 -35 20 -21 27 -25 20 -11 -6 12 -16 23 -22 25 -6 2 -1 12 12 23 l22
20 -7 -22 c-5 -15 -3 -23 4 -23 6 0 9 3 6 8 -2 4 7 13 20 19 22 10 24 10 19
-7 -3 -10 -1 -21 4 -25 6 -3 8 0 5 8 -3 8 5 19 18 25 13 7 16 11 8 8 -8 -2
-23 4 -33 13 -14 11 -18 12 -15 2 2 -7 -4 -16 -12 -19 -8 -2 -12 -1 -8 3 4 4
3 17 -3 28 -9 15 -8 18 3 11 7 -5 20 -9 28 -11 8 -1 16 -7 18 -13 2 -5 8 -7
13 -4 6 3 16 0 24 -6 8 -7 15 -10 15 -6 0 3 12 1 28 -5 52 -21 83 -28 76 -18
-3 5 0 17 8 26 9 12 9 15 1 9 -7 -4 -13 -3 -13 2 0 15 28 22 33 9 2 -7 4 1 4
17 0 23 -1 26 -9 13 -11 -21 -25 -22 -25 -2 0 8 4 12 9 9 4 -3 8 0 8 5 0 6 -4
11 -8 11 -5 0 -9 20 -9 45 -1 25 3 42 8 39 5 -3 7 -11 3 -17 -3 -7 3 -2 14 10
11 12 22 20 24 18 3 -3 5 1 5 9 0 8 -6 12 -14 9 -7 -3 -13 -12 -13 -20 0 -13
-3 -13 -15 -3 -12 10 -13 15 -4 21 9 5 7 13 -5 30 -9 13 -16 19 -16 13 0 -5 5
-15 12 -22 9 -9 9 -12 1 -12 -7 0 -15 5 -18 10 -3 6 -15 10 -26 10 -10 0 -19
5 -19 10 0 6 -3 9 -7 9 -26 -4 -53 2 -48 11 4 6 11 7 17 4 7 -4 8 -2 4 4 -4 7
-2 12 3 12 6 0 11 -8 12 -17 0 -10 3 -13 5 -6 3 7 13 9 22 6 9 -3 4 4 -13 14
-27 18 -31 18 -42 4 -7 -9 -13 -11 -13 -6 0 6 -5 3 -10 -5 -7 -11 -10 -11 -10
-2 0 7 -4 11 -9 7 -5 -3 -12 -1 -16 4 -3 6 -12 8 -20 4 -8 -3 -15 0 -15 7 0 6
-5 8 -12 4 -7 -4 -8 -3 -4 5 4 6 12 9 17 6 5 -4 9 -1 9 4 0 13 -20 14 -39 2
-18 -12 -78 35 -73 57 2 7 -1 11 -6 8 -6 -3 -18 2 -29 12 -10 9 -14 14 -9 10
18 -14 29 -8 16 7 -7 8 -9 15 -5 15 4 0 15 -10 26 -22 10 -13 18 -17 19 -10 0
6 -10 22 -22 34 -14 14 -16 19 -5 15 8 -3 21 1 29 10 11 14 10 15 -9 9 -16 -5
-25 -2 -33 14 -6 12 -9 24 -7 27 3 2 8 -5 12 -16 6 -21 16 -26 28 -14 4 3 1
11 -6 17 -7 6 -10 10 -8 8 2 -1 13 6 24 15 12 10 17 12 12 4 -5 -9 -3 -12 6
-9 8 3 13 11 11 17 -1 6 2 11 8 11 5 0 10 -5 10 -11 0 -5 5 -7 10 -4 6 4 7 12
4 18 -4 7 -4 9 1 5 4 -4 14 -3 22 3 7 6 13 8 13 4 0 -5 9 0 20 10 13 11 24 15
29 9 9 -8 -43 -65 -55 -61 -3 1 -12 -9 -20 -23 l-14 -25 6 29 c5 21 4 27 -5
21 -7 -4 -10 -9 -7 -12 3 -3 1 -15 -5 -26 -7 -13 -7 -17 -1 -13 6 3 13 2 17
-4 3 -5 3 -10 -2 -11 -4 0 -16 -2 -25 -4 -12 -2 -15 2 -10 13 5 15 4 15 -12 3
-17 -14 -17 -16 -1 -27 9 -7 23 -10 30 -8 7 3 16 1 19 -4 3 -5 -3 -12 -14 -15
-11 -3 -20 -1 -20 5 0 5 -4 6 -10 3 -12 -7 -14 -26 -2 -24 19 3 33 -2 28 -10
-3 -5 1 -14 9 -21 8 -7 12 -17 8 -23 -4 -6 -1 -7 8 -2 14 9 49 15 49 8 0 -3
-4 -12 -9 -22 -8 -14 -4 -17 29 -16 22 0 36 4 33 11 -6 16 -56 42 -73 37 -8
-2 -4 4 9 15 14 11 32 18 40 15 14 -4 14 -4 1 6 -11 7 -21 6 -37 -5 -25 -16
-31 -6 -10 15 10 11 9 12 -2 6 -11 -6 -13 -4 -8 8 4 10 2 14 -7 11 -7 -3 -13
2 -13 11 0 9 6 14 14 11 8 -3 11 -2 8 3 -3 5 -1 12 5 16 5 3 10 1 10 -4 0 -6
5 -11 11 -11 8 0 8 4 0 14 -10 12 -6 18 18 32 16 10 28 21 25 26 -3 4 -1 8 5
8 5 0 13 -4 16 -10 3 -5 11 -10 17 -10 5 0 0 8 -13 19 -24 19 -33 58 -13 58 6
0 11 -7 9 -16 -3 -22 14 -41 31 -34 12 4 11 8 -5 20 -34 24 0 59 53 53 12 -1
16 2 11 11 -5 8 -4 10 3 5 12 -7 14 -1 16 57 0 16 9 34 19 41 9 7 17 17 17 22
0 4 -5 3 -12 -4 -20 -20 -24 -14 -25 31 -1 75 -1 75 -33 73 -16 0 -30 -4 -30
-8 0 -16 -19 -8 -23 10 -3 12 -5 10 -6 -7 0 -13 -4 -22 -7 -19 -3 4 -17 0 -31
-7 -15 -8 -30 -12 -35 -9 -4 3 -8 -1 -9 -8 0 -7 -4 -4 -9 7 -5 14 -3 24 7 32
13 10 12 12 -5 10 -12 0 -19 -3 -16 -6 2 -2 -8 -13 -23 -23 -24 -16 -23 -21 5
-17 4 1 6 5 4 10 -1 5 2 9 8 9 13 0 13 -27 1 -34 -5 -4 -20 -2 -34 3 -18 7
-30 6 -46 -5 -11 -8 -21 -11 -21 -5 0 6 12 17 26 24 22 12 24 15 10 20 -11 5
-15 3 -10 -5 5 -8 2 -9 -10 -5 -9 4 -14 3 -11 -2 3 -5 1 -12 -4 -16 -5 -3 -15
3 -21 12 -11 17 -11 17 -6 1 3 -10 0 -19 -7 -19 -7 -1 -19 -2 -27 -3 -8 0 -13
-8 -11 -16 2 -8 4 -20 4 -27 0 -9 6 -9 19 -2 11 6 17 17 14 24 -2 7 2 16 10
19 12 5 14 1 9 -17 -5 -17 -4 -19 4 -7 9 13 11 12 11 -3 0 -10 -6 -17 -12 -15
-7 1 -22 -3 -33 -9 -11 -6 -28 -9 -37 -8 -9 2 -19 -4 -22 -12 -3 -8 -10 -11
-16 -8 -6 3 -17 -1 -26 -10 -9 -9 -23 -14 -30 -11 -8 3 -14 0 -14 -7 0 -9 -3
-8 -9 1 -7 11 -9 10 -15 -3 -3 -9 -10 -14 -15 -11 -5 4 -12 1 -14 -4 -3 -6 -4
-5 -3 2 2 7 9 12 15 11 6 -2 11 2 11 7 0 6 -4 10 -10 10 -20 0 -25 2 -38 12
-7 6 -15 8 -19 4 -3 -3 -1 -6 5 -6 6 0 9 -7 5 -16 -4 -11 -8 -12 -13 -4 -6 9
-13 9 -29 1 -12 -7 -19 -16 -16 -22 6 -8 -9 -13 -29 -10 -5 1 -13 -4 -17 -10
-6 -10 -11 -10 -25 2 -10 8 -15 9 -11 2 4 -6 3 -14 -3 -18 -5 -3 -10 -1 -10 6
0 7 -3 9 -6 6 -4 -4 -1 -13 5 -21 11 -13 16 -14 35 -1 13 8 26 12 31 8 4 -5 5
-2 1 4 -5 9 -2 11 7 7 8 -3 18 0 22 5 3 6 12 8 18 4 7 -4 6 1 -2 10 -12 15
-11 17 5 14 11 -1 25 -6 32 -11 7 -4 12 -4 11 1 -3 20 2 34 11 28 17 -10 -8
-45 -27 -38 -10 4 -14 2 -9 -5 4 -7 -1 -10 -14 -7 -12 2 -23 -2 -26 -8 -2 -7
-17 -14 -32 -15 -15 -1 -28 -7 -30 -12 -6 -17 -30 -11 -46 11 -15 22 -15 22
-13 1 0 -11 5 -18 10 -15 5 3 8 0 6 -6 -3 -7 -9 -12 -14 -12 -6 0 -26 -10 -45
-21 -19 -11 -26 -13 -16 -4 11 9 15 16 9 16 -5 0 -18 -10 -29 -22 -10 -12 -13
-18 -6 -14 8 5 12 -1 12 -18 0 -14 -5 -26 -11 -26 -5 0 -7 6 -3 13 4 6 3 9 -1
4 -13 -11 -16 -45 -5 -52 6 -3 7 1 4 9 -3 9 -2 16 3 16 5 0 10 -22 10 -50 1
-27 -3 -50 -8 -50 -6 0 -8 4 -5 8 3 5 -4 16 -15 25 -10 9 -19 12 -19 7 0 -6 6
-13 14 -16 9 -3 13 -15 10 -30 -2 -13 0 -24 6 -24 6 0 8 5 5 10 -3 6 -1 10 6
10 6 0 9 -8 7 -17 -3 -10 1 -31 8 -48 7 -16 13 -24 14 -17 0 10 4 10 23 0 12
-7 25 -11 29 -10 4 1 4 -6 1 -16 -6 -15 -5 -15 10 -3 13 10 20 11 30 2 8 -6
17 -8 21 -4 4 4 4 0 0 -10 -4 -12 -1 -17 11 -17 9 0 13 4 10 10 -3 6 1 7 10 4
14 -6 14 -8 -2 -19 -12 -9 -22 -10 -34 -2 -10 6 -17 13 -16 16 1 4 -2 6 -8 6
-5 0 -9 -3 -8 -7 7 -19 -23 -5 -45 20 -22 26 -23 26 -8 1 9 -14 13 -29 9 -34
-5 -4 -2 -5 5 -1 6 4 12 2 12 -4 0 -7 6 -8 17 -2 22 11 46 4 37 -10 -5 -7 -2
-8 6 -3 10 6 12 4 7 -8 -3 -8 0 -18 7 -20 8 -3 12 -17 11 -31 -2 -18 1 -23 11
-19 8 3 14 9 14 14 0 4 6 6 14 3 8 -3 17 -1 21 5 4 7 -1 8 -12 4 -10 -3 -15
-3 -11 1 3 4 14 9 24 10 10 2 20 8 22 15 3 10 0 10 -16 2 -28 -15 -35 -14 -29
3 6 15 -9 16 -30 3 -8 -5 -13 -3 -13 5 0 7 11 18 25 25 15 6 22 7 19 1 -4 -6
2 -8 17 -3 18 5 20 4 9 -4 -8 -5 -11 -13 -7 -17 3 -4 14 -1 24 7 9 8 14 9 10
3 -3 -6 0 -19 7 -30 16 -21 10 -44 -10 -44 -8 0 -14 -5 -14 -11 0 -6 6 -9 13
-6 9 3 12 -13 13 -58 1 -54 -2 -64 -17 -68 -11 -3 -19 -1 -19 3 0 5 8 11 17
13 16 4 16 5 1 6 -24 1 -32 -17 -16 -36 10 -13 10 -17 1 -20 -7 -3 -13 -9 -13
-15 0 -7 5 -7 13 1 8 6 17 7 22 3 4 -4 2 4 -5 17 -10 19 -10 23 2 19 8 -3 13
-22 13 -56 1 -49 -6 -64 -20 -42 -3 5 -12 10 -18 10 -9 0 -9 -2 0 -8 8 -5 9
-13 3 -22 -5 -9 -5 -19 2 -27 7 -9 7 -17 -2 -28 -10 -13 -10 -19 3 -33 15 -16
15 -20 -2 -48 -17 -28 -17 -30 -1 -30 11 0 15 6 12 18 -2 10 0 18 5 18 5 0 9
11 9 24 0 14 -3 23 -7 20 -14 -9 -17 25 -3 37 14 11 14 13 0 21 -8 5 -13 15
-9 24 3 10 9 11 17 5 7 -6 11 -39 11 -85 -1 -57 -5 -79 -19 -95 -10 -11 -15
-25 -10 -32 5 -9 2 -10 -10 -6 -9 4 -14 3 -11 -2 3 -5 1 -12 -4 -15 -11 -7
-11 -56 0 -56 4 0 6 12 3 26 -3 18 -1 23 7 18 8 -4 9 -3 5 4 -4 7 -3 12 2 12
4 0 8 -20 8 -45 -1 -43 -8 -56 -21 -35 -7 11 -35 2 -35 -12 0 -6 6 -5 15 2 12
10 16 9 21 -4 3 -9 9 -14 13 -11 4 2 8 -3 8 -11 0 -9 -6 -13 -14 -9 -8 3 -17
5 -19 5 -3 0 -2 5 2 12 4 7 3 8 -4 4 -17 -10 4 -47 22 -40 10 4 14 -2 12 -19
0 -14 -4 -23 -8 -20 -5 2 -8 -1 -8 -6 0 -6 5 -11 10 -11 6 0 10 -5 10 -10 0
-6 -12 -8 -28 -5 -15 3 -20 2 -12 -2 26 -12 41 -33 40 -56 -1 -12 -2 -35 -1
-50 1 -24 4 -27 22 -22 15 5 19 4 14 -5 -6 -9 -2 -9 15 0 20 11 22 10 16 -5
-5 -15 -4 -16 9 -5 20 16 75 21 99 8 13 -7 16 -7 12 1 -10 15 7 14 24 -1 13
-11 13 -11 2 2 -19 22 -15 70 9 88 11 10 22 26 24 37 2 11 4 22 4 25 1 3 5 -1
9 -8 6 -9 14 -7 31 9 18 17 25 18 36 9 9 -8 15 -8 15 -2 0 6 -6 13 -12 15 -10
4 -10 6 0 6 6 1 12 8 12 16 0 8 5 15 11 15 6 0 8 -9 4 -20 -4 -14 -2 -20 8
-20 9 0 17 -3 20 -7 2 -5 2 -3 1 4 -2 7 1 15 6 18 10 6 14 -6 11 -35 -1 -11 1
-10 9 3 8 12 18 16 33 12 17 -5 19 -4 7 4 -10 7 -11 11 -2 11 6 0 12 5 12 11
0 5 -5 7 -12 3 -7 -4 -8 -3 -4 4 4 7 -1 10 -14 7 -11 -2 -18 0 -15 5 3 5 -3 7
-15 5 -11 -2 -22 1 -25 6 -4 5 -11 7 -16 4 -5 -3 -6 1 -3 9 7 18 20 21 29 6 4
-6 10 -8 15 -5 5 3 14 -1 22 -8 7 -8 21 -13 30 -11 10 1 22 -4 29 -12 6 -8 16
-11 22 -7 6 4 7 1 2 -7 -5 -9 -2 -10 13 -6 11 4 23 2 27 -4 3 -6 11 -8 16 -5
5 4 12 0 15 -8 3 -8 15 -13 27 -13 37 3 50 -13 32 -40 -9 -13 -11 -24 -5 -24
5 0 10 4 10 9 0 5 7 8 16 7 9 0 19 6 21 14 4 13 3 13 -6 0 -5 -8 -13 -11 -18
-7 -4 5 -1 12 7 17 14 9 19 7 70 -26 23 -15 23 -15 6 0 -18 14 -18 16 -3 17
25 2 31 4 44 12 6 4 19 4 29 0 12 -4 15 -3 10 5 -5 8 -1 10 10 5 11 -4 15 -3
11 4 -5 7 0 9 13 6 11 -3 17 -9 14 -14 -3 -5 -9 -7 -14 -4 -4 3 -13 -2 -20
-10 -9 -10 -9 -15 -1 -15 6 0 11 5 11 12 0 6 3 8 7 5 3 -4 15 0 25 9 14 14 20
14 33 4 8 -7 13 -16 10 -20 -6 -10 22 -7 32 4 4 4 2 6 -6 4 -7 -2 -16 3 -18
10 -3 6 2 12 10 12 22 0 51 36 36 46 -8 5 -10 3 -4 -6 6 -9 4 -11 -5 -5 -8 5
-11 4 -7 -2 4 -6 -5 -15 -19 -22 -31 -14 -37 -14 -28 0 4 8 0 8 -15 0 -17 -10
-20 -9 -15 4 3 8 10 13 14 10 5 -3 11 -1 15 4 3 6 13 7 22 4 12 -5 14 -3 8 7
-5 8 -4 11 3 6 6 -3 13 -2 17 4 4 6 10 8 15 5 4 -3 13 2 20 10 8 10 21 13 33
9 14 -4 17 -3 12 6 -5 9 -4 11 3 6 7 -4 12 -1 12 6 0 8 5 6 11 -5 8 -13 7 -23
-2 -35 -11 -14 -11 -15 1 -5 8 7 23 13 34 14 21 0 21 0 1 9 -21 9 -21 9 7 15
23 4 31 -22 10 -34 -15 -9 -14 -10 5 -8 12 0 20 4 17 8 -2 4 2 10 8 12 10 4
10 6 1 6 -7 1 -13 5 -13 11 0 5 6 7 13 4 21 -8 43 24 28 39 -10 9 -11 8 -6 -8
5 -15 4 -16 -3 -6 -6 8 -12 9 -16 3 -3 -6 0 -12 6 -15 7 -3 -3 -4 -22 -2 -19
1 -41 -2 -47 -8 -9 -6 -13 -6 -13 2 0 10 14 15 24 9 2 -2 13 6 25 16 12 11 21
16 21 11 0 -4 7 -2 15 5 8 7 15 9 15 5 0 -4 7 -1 16 6 15 12 34 19 62 21 6 1
12 6 12 12 0 6 5 4 10 -4 6 -10 5 -17 -5 -23 -17 -9 -20 -27 -4 -27 5 0 7 5 3
12 -5 7 -2 9 9 5 12 -4 15 -1 12 16 -4 20 -3 21 9 5 7 -10 17 -18 21 -18 4 0
2 6 -4 14 -12 14 -4 49 9 41 5 -3 15 2 24 10 8 8 17 11 20 6 6 -10 -13 -29
-29 -29 -5 0 -10 -5 -11 -12 -2 -7 -1 -7 3 0 3 7 11 4 20 -7 8 -10 11 -12 8
-5 -4 7 1 22 11 33 9 10 13 19 8 20 -5 0 5 7 21 14 17 8 25 14 20 15 -11 0
-15 70 -5 70 3 0 10 -4 16 -10 6 -6 10 -2 11 13 0 12 -1 17 -4 10 -5 -13 -33
-6 -33 9 0 5 5 6 10 3 6 -3 10 -1 10 5 0 6 5 8 12 4 7 -4 8 -3 4 4 -4 6 -14 9
-24 6 -15 -5 -15 -4 -1 5 9 6 26 8 39 6 12 -2 19 -1 16 3 -4 4 -19 7 -33 7
-29 1 -41 30 -17 39 17 7 18 -5 2 -24 -11 -12 -10 -12 3 -2 9 6 18 9 22 6 3
-3 3 4 0 15 -4 15 -11 20 -22 16 -12 -3 -17 1 -18 15 -1 11 3 20 8 20 6 0 7
-5 4 -10 -10 -17 7 -11 22 8 14 16 14 16 9 0 -3 -10 -1 -18 4 -18 11 0 13 23
3 33 -3 4 -12 2 -20 -4 -10 -9 -13 -8 -13 0 0 7 -4 10 -9 7 -11 -7 -9 37 3 45
5 4 5 15 1 25 -12 27 -12 78 -1 86 12 8 26 1 26 -13 0 -6 -4 -8 -9 -4 -5 3
-12 1 -15 -4 -4 -5 -2 -12 3 -15 5 -4 12 -2 16 4 4 6 13 7 24 1 13 -8 17 -5
18 12 0 12 -1 16 -4 10 -7 -20 -19 -15 -19 7 0 13 5 19 14 15 7 -2 10 0 7 5
-11 18 -38 12 -31 -7 5 -15 4 -15 -9 1 -8 11 -15 14 -15 8 0 -7 -5 -12 -11
-12 -8 0 -8 4 0 14 8 9 8 16 2 20 -5 4 -9 15 -8 26 1 10 5 16 9 14 5 -3 6 -10
2 -15 -3 -5 0 -16 6 -24 16 -19 54 -1 46 21 -4 12 -1 14 14 9 12 -4 20 -2 20
5 0 6 -4 9 -9 6 -5 -3 -12 1 -15 10 -5 13 -9 14 -21 4 -8 -7 -12 -17 -8 -23 3
-6 -6 -2 -20 9 -24 17 -39 43 -18 30 5 -3 12 1 15 10 9 24 8 26 -13 14 -11 -5
-23 -10 -28 -10 -4 1 3 7 17 14 29 17 43 11 35 -13 -3 -11 0 -18 10 -18 14 0
16 22 2 43 -4 7 0 14 8 17 10 4 12 1 8 -11 -4 -12 3 -9 23 9 16 15 35 24 43
21 9 -3 11 0 6 9 -5 8 -4 11 0 7 5 -5 9 -19 11 -32 2 -18 -1 -23 -12 -19 -7 3
-12 9 -9 13 3 5 0 12 -7 16 -7 4 -10 4 -6 -1 11 -11 -12 -36 -25 -28 -6 4 -7
1 -2 -7 5 -8 4 -11 -3 -6 -11 7 -11 -12 1 -32 5 -8 14 -9 25 -3 9 4 24 6 32 4
8 -3 6 1 -5 10 -11 8 -16 19 -12 23 4 5 11 3 15 -3 5 -9 11 -6 20 7 7 12 8 20
2 20 -5 0 -10 5 -10 11 0 6 6 9 14 6 16 -6 43 19 32 30 -3 3 -6 1 -6 -4 0 -12
-26 -12 -35 0 -3 4 -2 5 1 2 4 -2 19 2 34 10 17 9 31 10 36 5 9 -9 12 3 15 53
0 9 4 17 10 17 5 0 9 5 9 11 0 5 -4 8 -8 5 -4 -2 -9 4 -9 15 -1 10 3 19 8 19
6 0 7 -4 4 -10 -4 -6 1 -7 11 -3 16 6 16 7 -2 16 -17 7 -21 18 -21 67 0 33 3
58 6 55 4 -2 13 1 21 6 13 9 13 10 0 8 -29 -3 -46 1 -66 16 -10 9 -13 14 -5
13 7 -2 16 4 18 12 4 13 3 13 -6 0 -6 -8 -11 -11 -11 -6 0 5 -7 3 -15 -4 -9
-7 -18 -10 -22 -6 -4 3 2 13 13 21 10 8 15 14 9 14 -5 0 -19 -6 -29 -14 -17
-13 -22 -13 -38 2 -10 9 -18 13 -18 8 0 -4 -7 -2 -15 5 -8 6 -20 8 -26 4 -8
-5 -9 -3 -4 6 6 10 4 12 -9 7 -9 -4 -14 -3 -11 2 3 5 1 12 -5 16 -5 3 -10 1
-10 -5 0 -6 -10 -4 -25 6 -13 8 -28 13 -33 10 -6 -3 -15 1 -22 9 -6 7 -18 11
-26 8 -8 -3 -14 -1 -14 4 0 5 9 9 20 10 11 1 20 -3 20 -9 0 -24 13 3 16 34 3
22 1 28 -5 19 -5 -8 -7 -19 -5 -26 3 -7 -4 -11 -18 -10 -13 1 -28 -2 -34 -7
-8 -5 -18 -3 -27 7 -19 18 -31 20 -21 3 5 -9 2 -9 -9 1 -9 7 -17 10 -17 5 0
-5 -7 -1 -15 10 -8 10 -19 15 -26 10 -7 -4 -10 -3 -5 4 4 6 -1 11 -11 11 -39
1 -50 5 -50 18 0 9 4 10 12 3 9 -8 15 -6 19 6 4 9 4 19 1 22 -3 3 -5 0 -5 -6
0 -7 -5 -12 -11 -12 -6 0 -8 7 -5 16 4 10 2 13 -6 8 -8 -5 -9 -2 -5 10 5 13 3
15 -12 7 -10 -6 -21 -17 -25 -26 -4 -13 -2 -14 14 -5 22 12 25 4 10 -20 -6 -9
-10 -11 -10 -3 0 7 -7 10 -15 7 -22 -9 -13 35 10 52 10 8 14 14 7 14 -6 0 -17
-6 -24 -14 -11 -11 -16 -11 -35 1 -12 8 -20 22 -18 32 2 10 -3 18 -11 18 -11
0 -11 -3 -1 -16z m-659 -73 c-5 -8 -2 -9 10 -5 11 4 15 3 11 -4 -4 -6 -13 -8
-21 -5 -8 3 -14 1 -14 -5 0 -6 -5 -7 -12 -3 -7 5 -5 11 7 21 23 16 28 17 19 1z
m-86 -16 c6 -18 -15 -14 -22 4 -4 10 -1 14 6 12 6 -2 14 -10 16 -16z m212
-223 c0 -11 -70 -79 -82 -79 -4 0 -3 11 4 25 6 13 14 22 18 20 4 -2 16 3 26
11 10 9 12 13 4 9 -8 -4 -6 1 4 9 23 19 26 19 26 5z m-227 -64 c-3 -9 -8 -14
-10 -11 -3 3 -2 9 2 15 9 16 15 13 8 -4z m780 1 c3 -8 16 -12 32 -11 19 3 23
0 16 -8 -9 -12 -11 -18 -11 -37 0 -5 -11 -9 -25 -8 -25 2 -31 9 -18 21 3 4 12
2 20 -4 7 -6 13 -10 14 -8 7 36 7 40 -5 30 -9 -7 -17 -5 -29 9 -19 23 -21 30
-8 30 5 0 11 -6 14 -14z m127 10 c0 -2 -7 -6 -15 -10 -8 -3 -15 -1 -15 4 0 6
7 10 15 10 8 0 15 -2 15 -4z m60 0 c0 -2 -8 -10 -17 -17 -16 -13 -17 -12 -4 4
13 16 21 21 21 13z m-956 -40 c-3 -9 -10 -16 -15 -16 -5 0 -4 9 3 20 14 22 21
20 12 -4z m919 0 c3 3 4 -1 3 -10 -1 -8 -6 -19 -11 -23 -4 -4 -5 -2 -1 5 4 6
2 12 -3 12 -6 0 -11 7 -11 16 0 14 -3 14 -15 4 -9 -8 -15 -8 -15 -2 0 17 24
21 36 6 6 -8 14 -11 17 -8z m117 -22 c0 -8 -19 -13 -24 -6 -3 5 1 9 9 9 8 0
15 -2 15 -3z m-907 -41 c-10 -8 -13 -12 -6 -9 14 8 27 -10 14 -18 -19 -12 -35
33 -17 46 19 13 27 -4 9 -19z m821 15 c-3 -4 -9 -8 -15 -8 -5 0 -9 4 -9 8 0 5
7 9 15 9 8 0 12 -4 9 -9z m-953 -31 c-8 -8 -14 -7 -23 2 -11 10 -9 11 6 5 15
-6 17 -4 11 6 -6 9 -4 11 4 5 9 -5 10 -10 2 -18z m29 -7 c0 -5 -5 -10 -11 -10
-5 0 -7 5 -4 10 3 6 8 10 11 10 2 0 4 -4 4 -10z m743 -6 c-2 -7 5 -15 16 -19
12 -3 21 -11 21 -18 0 -8 -3 -8 -12 1 -17 17 -33 15 -19 -2 10 -12 9 -14 -5
-12 -21 3 -38 32 -24 41 6 4 8 10 6 14 -3 4 1 8 8 8 8 0 12 -6 9 -13z m-563
-33 c0 -4 -7 -8 -15 -8 -16 0 -20 9 -9 20 8 8 24 -1 24 -12z m1056 -118 c-1
-21 -16 -34 -29 -26 -4 3 -1 14 9 24 21 23 22 23 20 2z m-1570 -22 c-4 -5 -1
-11 5 -13 7 -2 5 -9 -5 -17 -14 -12 -16 -11 -12 10 6 31 5 29 12 29 3 0 3 -4
0 -9z m125 -14 c-8 -8 -14 -7 -23 2 -11 10 -9 11 6 5 15 -6 17 -4 11 6 -6 9
-4 11 4 5 9 -5 10 -10 2 -18z m1299 4 c0 -4 -7 -16 -16 -27 -15 -18 -15 -18
-5 3 14 28 14 36 -1 27 -7 -4 -8 -3 -4 5 7 11 26 6 26 -8z m-1273 -16 c0 -8
-4 -15 -9 -15 -10 0 -11 14 -1 23 9 10 10 9 10 -8z m-32 -15 c-3 -5 -12 -10
-18 -10 -7 0 -6 4 3 10 19 12 23 12 15 0z m105 4 c0 -8 -19 -13 -24 -6 -3 5 1
9 9 9 8 0 15 -2 15 -3z m30 -4 c0 -5 -2 -10 -4 -10 -3 0 -8 5 -11 10 -3 6 -1
10 4 10 6 0 11 -4 11 -10z m1104 -2 c-3 -4 -9 -8 -15 -8 -5 0 -9 4 -9 8 0 5 7
9 15 9 8 0 12 -4 9 -9z m-1184 -18 c0 -5 -2 -10 -4 -10 -3 0 -8 5 -11 10 -3 6
-1 10 4 10 6 0 11 -4 11 -10z m80 -5 c0 -2 -9 -3 -19 -2 -11 0 -18 5 -15 9 4
6 34 0 34 -7z m1056 0 c-1 -8 -5 -17 -8 -21 -5 -4 -4 16 1 34 3 9 9 -1 7 -13z
m184 -1 c0 -8 -4 -12 -10 -9 -5 3 -10 10 -10 16 0 5 5 9 10 9 6 0 10 -7 10
-16z m-324 -29 c-3 -8 1 -21 9 -29 17 -17 19 -26 6 -26 -5 0 -12 8 -15 18 -3
10 -17 18 -31 18 -21 2 -24 -1 -14 -12 7 -8 14 -12 17 -10 2 3 16 -4 30 -14
23 -19 25 -19 38 -3 9 14 9 20 1 25 -8 5 -6 8 5 8 10 0 16 -7 15 -19 0 -11 -5
-17 -9 -15 -4 3 -8 0 -8 -5 0 -10 22 -16 45 -11 6 1 5 -4 -1 -10 -9 -9 -17 -9
-33 -1 -12 7 -21 8 -22 4 0 -4 -3 -17 -5 -28 -3 -11 -6 -25 -6 -32 -1 -8 -6
-8 -19 0 -10 6 -16 14 -13 18 8 13 -16 21 -30 10 -9 -8 -17 -3 -30 19 -14 25
-20 28 -37 20 -10 -6 -19 -15 -19 -21 0 -6 -5 -7 -11 -3 -8 4 -7 9 2 15 11 7
10 9 -3 9 -28 0 -16 39 13 44 8 1 24 8 37 14 12 7 22 10 22 6 0 -3 6 -1 14 5
11 9 15 9 20 -1 4 -10 9 -9 18 5 16 21 22 22 14 2z m38 -1 c3 -8 2 -12 -4 -9
-6 3 -10 1 -10 -6 0 -7 -2 -10 -5 -7 -5 5 4 38 10 38 2 0 6 -7 9 -16z m-764
-39 c8 -11 10 -17 6 -13 -5 4 -15 3 -23 -3 -15 -13 -14 -14 -18 28 -3 34 3 32
35 -12z m814 37 c3 -5 -1 -9 -9 -9 -8 0 -15 4 -15 9 0 4 4 8 9 8 6 0 12 -4 15
-8z m-1024 -36 c0 -3 -4 -8 -10 -11 -5 -3 -10 -1 -10 4 0 6 5 11 10 11 6 0 10
-2 10 -4z m340 -328 c0 -4 5 -8 11 -8 5 0 8 4 5 9 -11 17 47 2 65 -17 10 -11
26 -19 36 -17 10 2 18 4 18 6 0 1 10 3 22 4 12 1 20 -1 18 -5 -3 -4 2 -13 10
-20 12 -10 16 -9 21 5 5 13 9 14 15 4 4 -8 3 -20 -4 -28 -10 -11 -9 -13 3 -9
8 3 15 14 15 26 0 26 41 59 48 39 7 -22 -4 -39 -18 -27 -17 14 -27 -1 -14 -20
6 -10 9 -11 9 -3 0 7 3 12 8 12 18 -3 33 2 28 9 -6 10 21 52 34 52 5 0 12 -10
16 -22 5 -18 8 -19 15 -6 5 9 19 14 34 13 25 -3 35 10 13 17 -6 2 -8 10 -4 16
5 8 13 9 25 2 10 -5 21 -7 23 -4 3 2 11 -2 17 -10 10 -11 9 -14 -1 -12 -7 1
-19 5 -25 9 -9 5 -11 3 -7 -6 5 -14 -13 -27 -50 -34 -11 -2 -25 -8 -33 -14 -7
-6 -13 -8 -13 -4 0 4 -6 2 -13 -4 -8 -6 -17 -8 -20 -4 -4 3 -7 0 -7 -7 0 -7
-3 -10 -6 -7 -4 3 -16 1 -28 -5 -42 -24 -126 -13 -110 14 4 6 1 9 -7 6 -8 -3
-13 -12 -11 -19 2 -9 -3 -8 -16 4 -10 9 -22 14 -27 10 -4 -5 -5 -2 0 6 6 10 2
11 -15 6 -18 -6 -22 -4 -17 9 7 19 -9 31 -19 15 -5 -8 -3 -9 6 -4 9 5 11 4 6
-3 -5 -9 -15 -8 -37 3 -16 9 -29 12 -29 8 0 -5 -7 0 -15 10 -7 11 -11 26 -8
34 5 14 8 13 20 -3 7 -10 13 -21 13 -26z m-253 -33 c-23 -22 -33 -18 -12 5 10
11 20 18 23 16 2 -3 -3 -12 -11 -21z m-29 -50 c-1 -10 -11 -19 -21 -21 -9 -1
-15 2 -11 7 3 5 10 7 15 4 5 -4 9 3 9 14 0 15 -5 19 -17 15 -15 -5 -16 -4 -3
5 18 12 33 0 28 -24z m17 -31 c-9 -18 -15 -23 -15 -12 0 9 5 20 10 23 6 3 11
16 11 28 1 14 3 16 6 6 2 -8 -3 -28 -12 -45z m26 -31 c13 -16 12 -17 -3 -4
-10 7 -18 15 -18 17 0 8 8 3 21 -13z m-44 -9 c5 -13 8 -13 15 -2 8 10 9 9 4
-4 -3 -10 -1 -20 4 -23 4 -3 10 1 13 7 3 10 8 9 22 -2 17 -14 18 -13 11 4 -7
20 -7 20 16 1 13 -11 24 -20 26 -21 1 -1 -2 -13 -9 -27 -13 -29 -65 -70 -79
-62 -5 3 -12 0 -15 -6 -4 -5 -13 -8 -19 -6 -7 3 -13 -1 -13 -8 0 -7 7 -11 15
-8 12 5 12 3 1 -16 -8 -11 -21 -21 -29 -20 -8 0 -10 3 -4 5 6 2 9 25 8 49 -1
25 2 45 7 45 6 0 7 6 2 13 -11 17 -12 57 -1 57 5 0 8 -7 6 -16 -2 -10 3 -19
10 -21 8 -3 10 2 6 14 -5 15 -4 15 5 3 5 -8 14 -11 18 -6 4 4 -3 16 -16 27
-13 10 -19 19 -15 19 5 0 2 5 -6 10 -10 7 -11 10 -2 10 7 0 15 -7 19 -16z
m153 -80 c0 4 6 4 13 -1 6 -4 15 -8 20 -9 4 -1 10 -2 15 -3 4 -1 1 -5 -7 -10
-10 -7 -19 -5 -26 6 -9 11 -14 13 -19 5 -11 -18 -22 -14 -22 7 0 15 3 17 13 9
7 -6 13 -7 13 -4z"/>
<path d="M1630 1411 c0 -7 -4 -10 -9 -6 -5 3 -12 1 -16 -5 -4 -6 -10 -8 -15
-5 -4 3 -13 -2 -20 -10 -10 -12 -8 -13 11 -10 12 3 26 10 30 16 4 8 9 4 14
-10 3 -11 11 -21 16 -21 6 0 7 -6 3 -12 -5 -8 0 -7 11 2 17 14 18 13 12 -2 -4
-12 -2 -15 7 -12 8 3 21 -5 30 -18 9 -12 16 -18 17 -13 0 6 2 19 4 29 3 17
-37 60 -42 46 -1 -3 -13 6 -27 19 -14 14 -26 19 -26 12z m52 -36 c7 7 32 -23
34 -42 2 -10 -8 -5 -27 13 -16 15 -29 24 -29 20 0 -5 -7 -3 -15 4 -8 7 -12 17
-9 22 3 5 13 3 23 -6 10 -9 20 -14 23 -11z"/>
<path d="M1680 1366 c0 -2 8 -10 18 -17 15 -13 16 -12 3 4 -13 16 -21 21 -21
13z"/>
<path d="M1086 1077 c3 -10 9 -15 12 -12 3 3 0 11 -7 18 -10 9 -11 8 -5 -6z"/>
<path d="M1140 1060 c-9 -6 -10 -10 -3 -10 6 0 15 5 18 10 8 12 4 12 -15 0z"/>
<path d="M1421 1046 c-8 -9 -8 -16 -2 -20 5 -4 12 -2 16 4 4 6 11 8 16 5 5 -3
6 1 3 9 -8 20 -18 20 -33 2z"/>
<path d="M1245 1030 c-4 -6 -11 -7 -17 -4 -7 4 -8 2 -4 -5 6 -9 11 -9 22 0 14
11 18 19 10 19 -3 0 -8 -5 -11 -10z"/>
<path d="M1273 1017 c0 -24 28 -30 46 -10 15 16 15 16 -2 3 -15 -11 -19 -10
-31 5 -11 15 -13 15 -13 2z"/>
<path d="M852 863 c-15 -17 -28 -23 -40 -18 -13 5 -14 4 -5 -6 8 -8 9 -17 3
-24 -11 -14 4 -40 19 -31 6 4 9 11 6 16 -3 5 -1 11 4 14 5 3 12 -2 15 -11 6
-14 11 -12 36 12 16 15 27 32 24 37 -3 4 0 8 6 8 6 0 8 5 5 11 -4 6 -13 8 -20
5 -7 -2 -16 -1 -21 4 -5 5 -19 -2 -32 -17z m55 -8 c0 -8 -11 -24 -23 -36 l-23
-21 6 21 c3 11 10 18 16 14 6 -4 8 0 4 10 -3 9 -1 18 6 21 7 2 12 5 13 5 0 1
1 -6 1 -14z m-46 -22 c-8 -15 -10 -15 -11 -2 0 17 10 32 18 25 2 -3 -1 -13 -7
-23z m-29 -16 c-7 -8 -8 -18 -4 -22 4 -5 1 -5 -5 -1 -10 5 -10 11 -1 26 7 11
14 17 17 15 2 -3 -1 -11 -7 -18z"/>
<path d="M1056 2197 c3 -10 9 -15 12 -12 3 3 0 11 -7 18 -10 9 -11 8 -5 -6z"/>
<path d="M867 2189 c7 -7 15 -10 18 -7 3 3 -2 9 -12 12 -14 6 -15 5 -6 -5z"/>
<path d="M953 2185 c0 -8 4 -12 9 -9 5 3 6 10 3 15 -9 13 -12 11 -12 -6z"/>
<path d="M1206 2192 c-3 -5 1 -9 9 -9 8 0 12 4 9 9 -3 4 -7 8 -9 8 -2 0 -6 -4
-9 -8z"/>
<path d="M1635 2190 c-3 -5 -1 -10 4 -10 6 0 11 5 11 10 0 6 -2 10 -4 10 -3 0
-8 -4 -11 -10z"/>
<path d="M1030 2180 c-13 -8 -12 -10 3 -10 9 0 17 5 17 10 0 12 -1 12 -20 0z"/>
<path d="M775 2171 c-3 -5 -2 -12 3 -15 5 -3 9 1 9 9 0 17 -3 19 -12 6z"/>
<path d="M1550 2169 c0 -5 5 -7 10 -4 6 3 10 1 10 -5 0 -6 5 -8 11 -4 8 4 7 9
-2 15 -19 12 -29 11 -29 -2z"/>
<path d="M820 2166 c0 -2 7 -7 16 -10 8 -3 12 -2 9 4 -6 10 -25 14 -25 6z"/>
<path d="M1217 2164 c-3 -3 -3 -13 0 -22 5 -11 3 -13 -7 -7 -9 5 -11 4 -6 -4
10 -16 25 -4 23 19 -1 22 -1 22 -10 14z"/>
<path d="M1285 2150 c-10 -11 -14 -20 -9 -20 5 0 2 -5 -6 -10 -11 -7 -11 -10
-2 -10 7 0 10 -5 6 -12 -4 -7 -3 -8 5 -4 6 4 9 11 6 16 -3 4 1 11 7 13 10 4 9
6 -1 6 -11 1 -10 6 4 21 10 11 16 20 13 20 -3 0 -13 -9 -23 -20z"/>
<path d="M1737 2159 c7 -7 15 -10 18 -7 3 3 -2 9 -12 12 -14 6 -15 5 -6 -5z"/>
<path d="M1245 2150 c-3 -6 1 -7 9 -4 18 7 21 14 7 14 -6 0 -13 -4 -16 -10z"/>
<path d="M1875 2150 c3 -5 8 -10 11 -10 2 0 4 5 4 10 0 6 -5 10 -11 10 -5 0
-7 -4 -4 -10z"/>
<path d="M1795 2140 c-3 -5 -1 -10 4 -10 6 0 11 5 11 10 0 6 -2 10 -4 10 -3 0
-8 -4 -11 -10z"/>
<path d="M1752 2135 c4 -4 3 -15 -2 -25 -7 -13 -5 -16 12 -15 30 2 32 18 6 34
-13 7 -20 10 -16 6z"/>
<path d="M740 2121 c0 -7 -4 -10 -9 -6 -5 3 -13 0 -17 -6 -4 -8 -3 -9 4 -5 7
4 12 1 12 -6 0 -8 5 -6 11 5 6 10 8 21 5 24 -3 4 -6 1 -6 -6z"/>
<path d="M1236 2122 c-2 -4 -1 -14 4 -22 7 -11 9 -9 7 8 -1 24 -3 26 -11 14z"/>
<path d="M766 2105 c-11 -8 -15 -15 -10 -15 6 0 16 6 23 13 11 10 13 9 8 -4
-3 -9 0 -16 9 -16 16 0 16 0 8 21 -7 19 -13 20 -38 1z"/>
<path d="M1326 2112 c-3 -5 1 -9 9 -9 8 0 15 4 15 9 0 4 -4 8 -9 8 -6 0 -12
-4 -15 -8z"/>
<path d="M1363 2114 c4 -4 2 -13 -5 -21 -17 -20 -5 -22 14 -2 15 16 15 18 0
24 -9 3 -13 3 -9 -1z"/>
<path d="M1807 2114 c-3 -3 -3 -13 0 -22 4 -10 2 -13 -5 -8 -8 5 -10 1 -5 -10
4 -11 8 -13 11 -6 2 7 8 12 13 12 6 0 7 -6 3 -12 -5 -10 -4 -10 6 -1 10 9 17
7 32 -10 11 -12 17 -16 13 -9 -6 12 6 16 34 13 7 -2 10 3 6 9 -4 6 -16 8 -28
5 -22 -6 -22 -6 -2 11 14 12 15 15 4 11 -9 -3 -23 0 -30 6 -11 10 -10 9 0 -6
12 -15 11 -17 -8 -14 -12 2 -27 9 -34 17 -10 10 -9 12 6 7 11 -4 16 -3 12 3
-7 11 -19 13 -28 4z"/>
<path d="M1906 2109 c2 -4 13 -7 24 -6 23 2 17 10 -10 12 -10 1 -17 -2 -14 -6z"/>
<path d="M637 2089 c7 -7 15 -10 18 -7 3 3 -2 9 -12 12 -14 6 -15 5 -6 -5z"/>
<path d="M690 2094 c0 -7 27 -34 34 -34 13 0 5 16 -14 28 -11 7 -20 10 -20 6z"/>
<path d="M1986 2092 c-3 -5 1 -9 9 -9 8 0 12 4 9 9 -3 4 -7 8 -9 8 -2 0 -6 -4
-9 -8z"/>
<path d="M1301 2063 c-10 -24 -9 -26 2 -11 8 10 17 15 21 11 4 -4 4 0 0 10 -8
22 -9 22 -23 -10z"/>
<path d="M547 2069 c7 -7 15 -10 18 -7 3 3 -2 9 -12 12 -14 6 -15 5 -6 -5z"/>
<path d="M659 2069 c-12 -7 -12 -9 1 -10 8 -1 18 -1 23 0 4 0 7 -3 7 -7 0 -14
34 -10 52 5 9 8 22 12 29 7 8 -4 10 -3 5 4 -10 17 -27 15 -41 -5 -12 -16 -14
-16 -37 -1 -16 11 -30 13 -39 7z"/>
<path d="M1260 2070 c8 -5 20 -10 25 -10 6 0 3 5 -5 10 -8 5 -19 10 -25 10 -5
0 -3 -5 5 -10z"/>
<path d="M1375 2070 c3 -5 8 -10 11 -10 2 0 4 5 4 10 0 6 -5 10 -11 10 -5 0
-7 -4 -4 -10z"/>
<path d="M1961 2064 c0 -11 3 -14 6 -6 3 7 2 16 -1 19 -3 4 -6 -2 -5 -13z"/>
<path d="M1228 2063 c6 -2 10 -9 7 -14 -4 -5 1 -6 9 -3 11 4 13 0 10 -18 -4
-21 -4 -21 5 -3 9 20 -10 46 -33 44 -6 0 -5 -3 2 -6z"/>
<path d="M1209 2043 c14 -28 14 -36 -1 -27 -7 4 -8 3 -4 -5 7 -11 26 -6 26 8
0 4 -7 16 -16 27 -15 18 -15 18 -5 -3z"/>
<path d="M1334 2048 c-4 -5 -3 -12 0 -15 3 -4 6 -1 6 5 0 6 7 9 15 6 8 -4 15
-2 15 3 0 12 -29 13 -36 1z"/>
<path d="M521 2033 c11 -19 15 -20 22 -7 5 9 6 18 3 21 -3 4 -6 1 -6 -7 0 -10
-3 -10 -17 1 -15 13 -15 12 -2 -8z"/>
<path d="M1988 2043 c6 -3 9 -10 5 -16 -4 -7 2 -5 13 3 10 8 20 15 22 16 2 1
-10 1 -25 1 -15 0 -22 -2 -15 -4z"/>
<path d="M2052 2042 c-7 -5 -10 -16 -6 -25 3 -9 2 -17 -4 -17 -6 0 -12 5 -14
12 -3 8 -9 8 -24 -1 -12 -7 -13 -11 -4 -9 8 1 25 -3 38 -10 19 -11 23 -10 28
3 3 8 10 12 15 9 5 -3 9 0 9 6 0 7 -6 10 -14 7 -20 -8 -28 4 -15 20 13 15 10
16 -9 5z"/>
<path d="M1947 2027 c-3 -7 3 -13 13 -13 10 0 16 6 13 13 -3 7 -9 13 -13 13
-4 0 -10 -6 -13 -13z"/>
<path d="M500 2022 c0 -6 -8 -9 -17 -6 -15 5 -16 4 -3 -5 16 -11 40 3 27 16
-4 3 -7 1 -7 -5z"/>
<path d="M1360 2020 c8 -5 20 -10 25 -10 6 0 3 5 -5 10 -8 5 -19 10 -25 10 -5
0 -3 -5 5 -10z"/>
<path d="M433 2003 c0 -9 4 -10 14 -2 7 6 13 12 13 14 0 1 -6 2 -13 2 -8 0
-14 -6 -14 -14z"/>
<path d="M1335 2010 c6 -9 2 -10 -16 -5 -13 4 -22 6 -19 3 34 -27 38 -28 43
-14 4 9 1 18 -5 22 -7 5 -8 2 -3 -6z"/>
<path d="M2101 1991 c-11 -11 -23 -16 -27 -13 -4 4 -4 1 0 -6 5 -7 11 -11 14
-8 3 3 14 -2 25 -11 20 -18 20 -18 4 7 -16 23 -16 25 6 37 12 7 16 12 10 13
-7 0 -22 -9 -32 -19z"/>
<path d="M1225 1990 c-3 -6 1 -7 9 -4 18 7 21 14 7 14 -6 0 -13 -4 -16 -10z"/>
<path d="M2196 1984 c-8 -20 -8 -24 2 -24 4 0 8 9 9 20 2 24 -3 26 -11 4z"/>
<path d="M1200 1981 c0 -6 4 -13 10 -16 6 -3 7 1 4 9 -7 18 -14 21 -14 7z"/>
<path d="M1307 1969 c7 -7 15 -10 18 -7 3 3 -2 9 -12 12 -14 6 -15 5 -6 -5z"/>
<path d="M2125 1970 c3 -5 11 -10 16 -10 6 0 7 5 4 10 -3 6 -11 10 -16 10 -6
0 -7 -4 -4 -10z"/>
<path d="M394 1951 c0 -10 5 -18 11 -18 7 0 12 6 12 13 0 7 -5 15 -12 17 -6 3
-11 -3 -11 -12z"/>
<path d="M1403 1955 c0 -8 4 -15 9 -15 4 0 8 4 8 9 0 6 -4 12 -8 15 -5 3 -9
-1 -9 -9z"/>
<path d="M1126 1944 c-11 -7 -18 -16 -15 -18 2 -2 13 2 23 10 11 7 18 16 15
18 -2 2 -13 -2 -23 -10z"/>
<path d="M1180 1950 c-9 -6 -10 -10 -3 -10 6 0 15 5 18 10 8 12 4 12 -15 0z"/>
<path d="M1239 1943 c-13 -16 -12 -17 4 -4 9 7 17 15 17 17 0 8 -8 3 -21 -13z"/>
<path d="M1270 1949 c0 -5 5 -7 10 -4 6 3 10 8 10 11 0 2 -4 4 -10 4 -5 0 -10
-5 -10 -11z"/>
<path d="M1346 1952 c-3 -5 1 -9 9 -9 8 0 15 4 15 9 0 4 -4 8 -9 8 -6 0 -12
-4 -15 -8z"/>
<path d="M356 1933 c-6 -14 -5 -15 5 -6 7 7 10 15 7 18 -3 3 -9 -2 -12 -12z"/>
<path d="M1195 1930 c-3 -6 1 -7 9 -4 18 7 21 14 7 14 -6 0 -13 -4 -16 -10z"/>
<path d="M1150 1919 c0 -5 -6 -7 -12 -3 -7 4 -9 3 -5 -1 13 -15 34 -14 34 1 0
8 -4 14 -9 14 -4 0 -8 -5 -8 -11z"/>
<path d="M1452 1910 c0 -14 2 -19 5 -12 2 6 2 18 0 25 -3 6 -5 1 -5 -13z"/>
<path d="M1485 1910 c-10 -11 -15 -23 -12 -27 4 -3 7 0 7 8 0 12 2 11 11 -1 9
-13 10 -12 5 2 -3 10 -1 20 4 23 6 4 11 0 11 -7 1 -7 2 -17 4 -23 1 -5 3 -14
3 -19 1 -5 9 -3 17 4 9 7 18 10 22 6 4 -3 -2 -13 -13 -22 -15 -13 -16 -15 -2
-10 9 3 19 0 21 -7 3 -7 4 7 2 31 -2 37 -15 75 -15 43 0 -8 -7 -7 -23 4 -22
14 -25 14 -42 -5z m48 -31 c-9 -9 -12 -7 -10 9 1 14 5 18 11 12 7 -7 6 -14 -1
-21z"/>
<path d="M1020 1905 c-7 -8 -16 -13 -20 -10 -4 3 -13 -2 -20 -10 -11 -13 -10
-14 6 -9 25 10 70 44 57 44 -6 0 -16 -7 -23 -15z"/>
<path d="M1235 1911 c-3 -5 -2 -12 3 -15 5 -3 9 1 9 9 0 17 -3 19 -12 6z"/>
<path d="M290 1890 c0 -5 5 -10 11 -10 5 0 7 5 4 10 -3 6 -8 10 -11 10 -2 0
-4 -4 -4 -10z"/>
<path d="M1395 1890 c3 -5 8 -10 11 -10 2 0 4 5 4 10 0 6 -5 10 -11 10 -5 0
-7 -4 -4 -10z"/>
<path d="M1131 1877 c-8 -10 -7 -14 2 -14 8 0 14 6 14 14 0 7 -1 13 -2 13 -2
0 -8 -6 -14 -13z"/>
<path d="M1620 1883 c5 -2 8 -9 5 -13 -3 -5 -1 -11 4 -14 5 -4 8 2 7 11 -2 9
-8 18 -15 19 -6 1 -7 0 -1 -3z"/>
<path d="M2255 1870 c-3 -5 -1 -10 4 -10 6 0 11 5 11 10 0 6 -2 10 -4 10 -3 0
-8 -4 -11 -10z"/>
<path d="M935 1859 c-4 -6 -13 -8 -21 -5 -15 6 -18 -3 -6 -19 9 -12 32 -18 33
-7 0 4 2 15 4 25 4 19 -1 22 -10 6z"/>
<path d="M1665 1860 c-4 -6 -3 -16 3 -22 6 -6 12 -6 17 2 4 6 3 16 -3 22 -6 6
-12 6 -17 -2z"/>
<path d="M269 1833 c-13 -16 -12 -17 4 -4 9 7 17 15 17 17 0 8 -8 3 -21 -13z"/>
<path d="M1070 1836 c0 -8 4 -17 8 -20 4 -2 8 4 8 15 0 10 -4 19 -8 19 -4 0
-8 -6 -8 -14z"/>
<path d="M2266 1835 c-11 -8 -15 -15 -9 -15 6 0 16 7 23 15 16 19 11 19 -14 0z"/>
<path d="M1510 1830 c0 -5 5 -10 11 -10 5 0 7 5 4 10 -3 6 -8 10 -11 10 -2 0
-4 -4 -4 -10z"/>
<path d="M1110 1810 c0 -5 5 -10 11 -10 5 0 7 5 4 10 -3 6 -8 10 -11 10 -2 0
-4 -4 -4 -10z"/>
<path d="M1455 1810 c3 -5 8 -10 11 -10 2 0 4 5 4 10 0 6 -5 10 -11 10 -5 0
-7 -4 -4 -10z"/>
<path d="M1051 1801 c-8 -5 -9 -11 -3 -15 5 -3 12 1 16 9 6 17 6 18 -13 6z"/>
<path d="M2251 1788 c5 -10 11 -18 12 -18 2 0 3 8 3 18 0 10 -6 19 -13 19 -8
0 -9 -6 -2 -19z"/>
<path d="M276 1792 c-3 -5 1 -9 9 -9 8 0 12 4 9 9 -3 4 -7 8 -9 8 -2 0 -6 -4
-9 -8z"/>
<path d="M1070 1780 c-6 -11 -8 -20 -6 -20 3 0 10 9 16 20 6 11 8 20 6 20 -3
0 -10 -9 -16 -20z"/>
<path d="M2280 1789 c0 -5 5 -7 10 -4 6 3 10 8 10 11 0 2 -4 4 -10 4 -5 0 -10
-5 -10 -11z"/>
<path d="M335 1780 c-3 -5 -1 -10 4 -10 6 0 11 5 11 10 0 6 -2 10 -4 10 -3 0
-8 -4 -11 -10z"/>
<path d="M896 1777 c3 -10 9 -15 12 -12 3 3 0 11 -7 18 -10 9 -11 8 -5 -6z"/>
<path d="M1014 1779 c1 -7 10 -13 19 -15 9 -1 15 2 11 7 -3 5 -9 7 -14 4 -4
-3 -11 0 -13 5 -3 6 -4 5 -3 -1z"/>
<path d="M1675 1781 c-3 -5 -2 -12 3 -15 5 -3 9 1 9 9 0 17 -3 19 -12 6z"/>
<path d="M1155 1761 c-3 -5 -2 -12 3 -15 5 -3 9 1 9 9 0 17 -3 19 -12 6z"/>
<path d="M1519 1765 c-1 -3 -2 -8 -3 -12 -1 -5 -5 -15 -10 -23 -7 -12 -6 -13
4 -3 13 12 23 43 14 43 -2 0 -5 -2 -5 -5z"/>
<path d="M1714 1754 c3 -9 6 -18 6 -20 0 -3 4 -3 10 1 11 7 2 35 -12 35 -6 0
-7 -7 -4 -16z"/>
<path d="M1076 1737 c3 -10 9 -15 12 -12 3 3 0 11 -7 18 -10 9 -11 8 -5 -6z"/>
<path d="M897 1727 c-2 -7 8 -22 23 -34 33 -27 48 -10 21 22 -20 24 -37 29
-44 12z m44 -24 c13 -17 13 -17 -6 -3 -11 8 -22 16 -24 17 -2 2 0 3 6 3 6 0
17 -8 24 -17z"/>
<path d="M1540 1736 c0 -2 7 -6 15 -10 8 -3 15 -1 15 4 0 6 -7 10 -15 10 -8 0
-15 -2 -15 -4z"/>
<path d="M1656 1732 c-6 -11 6 -28 21 -27 21 0 22 11 3 23 -10 6 -21 8 -24 4z"/>
<path d="M296 1708 c3 -5 10 -6 15 -3 13 9 11 12 -6 12 -8 0 -12 -4 -9 -9z"/>
<path d="M1050 1710 c0 -6 4 -9 9 -6 5 4 12 1 14 -4 3 -6 4 -5 3 2 -3 15 -26
23 -26 8z"/>
<path d="M1110 1716 c0 -2 7 -7 16 -10 8 -3 12 -2 9 4 -6 10 -25 14 -25 6z"/>
<path d="M1522 1700 c-15 -25 -8 -42 15 -33 10 4 14 2 9 -5 -3 -6 -1 -14 5
-18 8 -4 9 -3 5 4 -4 7 -1 12 6 12 9 0 9 3 -2 10 -8 5 -11 10 -6 10 5 0 3 6
-3 13 -6 8 -8 17 -4 20 3 4 2 7 -3 7 -5 0 -15 -9 -22 -20z m17 -21 c-16 -10
-23 -4 -14 10 3 6 11 8 17 5 6 -4 5 -9 -3 -15z"/>
<path d="M1415 1690 c-3 -5 -1 -10 4 -10 6 0 11 5 11 10 0 6 -2 10 -4 10 -3 0
-8 -4 -11 -10z"/>
<path d="M1133 1670 c-1 -11 2 -22 8 -25 5 -4 6 2 2 12 -6 15 -4 16 8 6 13
-10 16 -10 16 2 0 8 -3 13 -5 10 -3 -3 -10 -1 -16 5 -8 6 -12 3 -13 -10z"/>
<path d="M1465 1669 c-4 -6 -5 -12 -2 -15 2 -3 7 2 10 11 7 17 1 20 -8 4z"/>
<path d="M315 1659 c-4 -6 -5 -12 -2 -15 2 -3 7 2 10 11 7 17 1 20 -8 4z"/>
<path d="M1490 1660 c0 -5 5 -10 11 -10 5 0 7 5 4 10 -3 6 -8 10 -11 10 -2 0
-4 -4 -4 -10z"/>
<path d="M2235 1661 c-3 -5 -2 -12 3 -15 5 -3 9 1 9 9 0 17 -3 19 -12 6z"/>
<path d="M1260 1650 c-9 -6 -10 -10 -3 -10 6 0 15 5 18 10 8 12 4 12 -15 0z"/>
<path d="M1511 1641 c-8 -5 -9 -11 -3 -15 5 -3 12 1 16 9 6 17 6 18 -13 6z"/>
<path d="M1443 1619 c8 -14 14 -15 29 -6 20 13 24 27 8 27 -5 0 -10 -4 -10
-10 0 -5 -5 -10 -11 -10 -5 0 -8 4 -5 8 3 5 -1 9 -8 9 -11 0 -12 -4 -3 -18z"/>
<path d="M372 1610 c2 -8 -2 -14 -9 -13 -12 3 -12 -22 1 -34 4 -4 6 -1 4 7 -1
8 2 14 9 13 12 -3 12 22 -1 34 -4 4 -6 1 -4 -7z"/>
<path d="M1150 1610 c-13 -8 -12 -10 3 -10 9 0 17 5 17 10 0 12 -1 12 -20 0z"/>
<path d="M1265 1610 c-3 -6 1 -7 9 -4 18 7 21 14 7 14 -6 0 -13 -4 -16 -10z"/>
<path d="M1387 1600 c3 -11 9 -20 15 -20 5 0 4 9 -2 20 -6 11 -12 20 -14 20
-2 0 -2 -9 1 -20z"/>
<path d="M2216 1611 c-3 -4 4 -17 17 -27 22 -19 22 -19 4 2 -9 11 -14 24 -10
27 3 4 4 7 0 7 -3 0 -8 -4 -11 -9z"/>
<path d="M1216 1595 c4 -8 11 -15 16 -15 6 0 5 6 -2 15 -7 8 -14 15 -16 15 -2
0 -1 -7 2 -15z"/>
<path d="M1286 1591 c-19 -7 -19 -8 0 -13 13 -3 21 0 21 8 0 8 -1 14 -1 13 -1
0 -10 -4 -20 -8z"/>
<path d="M1339 1583 c-13 -17 -13 -17 6 -3 11 8 22 16 24 17 2 2 0 3 -6 3 -6
0 -17 -8 -24 -17z"/>
<path d="M1360 1568 c-12 -8 -11 -9 3 -4 15 5 17 2 12 -13 -3 -11 -2 -22 3
-25 5 -3 10 6 10 19 0 30 -9 37 -28 23z"/>
<path d="M393 1555 c0 -8 4 -12 9 -9 5 3 6 10 3 15 -9 13 -12 11 -12 -6z"/>
<path d="M453 1545 c0 -8 4 -12 8 -10 4 3 9 -2 13 -10 3 -8 10 -15 16 -15 6 0
4 7 -4 16 -9 8 -16 20 -16 25 0 5 -4 9 -8 9 -5 0 -9 -7 -9 -15z"/>
<path d="M1308 1542 c4 -11 1 -13 -8 -7 -8 5 -11 4 -6 -3 3 -6 15 -9 26 -7 14
3 20 -2 20 -16 0 -10 -6 -18 -12 -16 -8 1 -13 -8 -13 -20 0 -13 4 -23 9 -22 5
0 13 -6 18 -15 10 -18 28 -21 28 -5 0 5 -4 8 -9 5 -5 -3 -12 1 -15 10 -3 8
-10 12 -16 9 -5 -3 -10 3 -10 14 0 12 6 20 13 19 7 -2 12 7 12 22 0 16 -5 24
-14 22 -8 -2 -11 3 -8 11 3 7 -1 14 -8 14 -8 0 -11 -7 -7 -15z"/>
<path d="M2157 1553 c-13 -12 -7 -23 11 -22 10 0 12 3 4 6 -6 2 -10 9 -6 14 6
10 0 12 -9 2z"/>
<path d="M1270 1531 c0 -10 29 -36 34 -30 1 2 -6 12 -16 22 -10 9 -18 13 -18
8z"/>
<path d="M1253 1511 c2 -14 9 -27 15 -29 7 -2 9 -9 6 -14 -4 -7 -2 -8 4 -4 17
10 15 26 -4 26 -8 0 -13 4 -10 8 2 4 0 14 -5 22 -7 11 -8 9 -6 -9z"/>
<path d="M575 1481 c-27 -44 -34 -67 -10 -35 8 10 15 14 15 7 0 -6 -7 -18 -15
-27 -13 -13 -13 -15 5 -21 11 -3 19 -11 17 -17 -1 -6 3 -12 9 -15 8 -2 11 10
10 36 0 21 -4 37 -7 35 -4 -2 -10 4 -13 13 -5 11 1 23 15 34 14 10 18 19 11
23 -7 4 -22 -10 -37 -33z m25 -73 c0 -4 -6 -5 -14 -2 -8 3 -12 12 -9 21 5 12
7 12 14 1 5 -7 9 -16 9 -20z"/>
<path d="M1231 1504 c0 -11 3 -14 6 -6 3 7 2 16 -1 19 -3 4 -6 -2 -5 -13z"/>
<path d="M1364 1512 c4 -7 2 -20 -5 -28 -10 -12 -8 -17 7 -28 10 -8 21 -12 24
-9 3 2 -4 9 -14 15 -18 10 -18 12 -3 23 16 12 16 13 0 26 -12 10 -15 11 -9 1z"/>
<path d="M2016 1508 c3 -5 10 -6 15 -3 13 9 11 12 -6 12 -8 0 -12 -4 -9 -9z"/>
<path d="M2110 1500 c8 -5 20 -10 25 -10 6 0 3 5 -5 10 -8 5 -19 10 -25 10 -5
0 -3 -5 5 -10z"/>
<path d="M2155 1501 c-3 -5 -2 -12 3 -15 5 -3 9 1 9 9 0 17 -3 19 -12 6z"/>
<path d="M1205 1490 c-3 -5 -1 -10 4 -10 6 0 11 5 11 10 0 6 -2 10 -4 10 -3 0
-8 -4 -11 -10z"/>
<path d="M430 1486 c0 -2 8 -10 18 -17 15 -13 16 -12 3 4 -13 16 -21 21 -21
13z"/>
<path d="M540 1470 c-9 -6 -10 -10 -3 -10 6 0 15 5 18 10 8 12 4 12 -15 0z"/>
<path d="M2095 1469 c-4 -6 -4 -13 -1 -16 3 -4 6 -1 6 7 0 10 3 10 15 0 13
-11 14 -10 9 4 -7 18 -20 21 -29 5z"/>
<path d="M1216 1459 c3 -5 14 -9 24 -9 13 0 18 -6 15 -20 -2 -11 1 -23 7 -26
7 -4 8 -2 4 4 -4 7 -1 12 6 12 10 0 10 2 0 9 -8 4 -13 12 -13 17 0 5 -11 12
-24 16 -14 3 -23 2 -19 -3z"/>
<path d="M508 1447 c7 -8 9 -17 5 -20 -3 -4 -1 -7 5 -7 18 0 14 27 -4 34 -13
5 -14 4 -6 -7z"/>
<path d="M840 1441 c0 -6 7 -14 15 -17 14 -6 13 -8 -2 -19 -10 -8 -14 -17 -10
-21 4 -5 12 -2 17 6 6 9 10 10 10 3 0 -6 -4 -14 -10 -18 -5 -3 -6 -13 -3 -22
5 -12 3 -14 -7 -8 -9 5 -11 4 -6 -3 10 -17 26 -15 26 2 0 8 5 18 12 22 7 5 9
2 5 -9 -3 -8 0 -20 7 -27 10 -8 15 -7 19 4 4 11 1 13 -10 9 -13 -5 -13 -2 2
21 14 21 15 29 5 41 -7 9 -15 13 -18 10 -3 -3 -16 5 -29 17 -13 12 -23 16 -23
9z m65 -49 c0 -7 -3 -11 -6 -9 -3 1 -14 -5 -25 -13 -17 -14 -18 -14 -6 2 8 9
11 21 8 27 -3 5 2 8 11 7 10 -2 18 -8 18 -14z"/>
<path d="M1290 1430 c0 -5 5 -10 10 -10 6 0 10 5 10 10 0 6 -4 10 -10 10 -5 0
-10 -4 -10 -10z"/>
<path d="M475 1421 c-3 -5 -2 -12 3 -15 5 -3 9 1 9 9 0 17 -3 19 -12 6z"/>
<path d="M1375 1410 c-3 -5 -2 -18 4 -27 7 -14 9 -12 8 10 -2 30 -3 31 -12 17z"/>
<path d="M533 1395 c0 -7 6 -11 14 -8 7 3 13 6 13 8 0 2 -6 5 -13 8 -8 3 -14
-1 -14 -8z"/>
<path d="M2090 1406 c0 -2 8 -10 18 -17 15 -13 16 -12 3 4 -13 16 -21 21 -21
13z"/>
<path d="M784 1383 c-4 -10 -6 -22 -5 -27 1 -4 -2 -13 -7 -20 -5 -6 -8 -20 -5
-31 2 -11 5 -26 7 -34 1 -8 10 -19 20 -26 10 -8 13 -16 7 -19 -5 -4 -12 -2
-16 4 -9 15 -24 3 -20 -18 2 -9 4 -18 5 -19 2 -2 3 -11 4 -20 2 -32 16 -45 32
-32 12 10 13 9 8 -5 -3 -9 -11 -16 -17 -16 -16 0 -2 -10 21 -15 12 -2 23 3 26
12 4 9 9 13 13 10 3 -3 17 0 32 7 14 7 36 11 48 10 12 0 20 2 18 7 -3 4 0 9 7
11 14 5 1 28 -15 27 -8 0 -8 -2 1 -6 10 -4 10 -8 1 -19 -13 -15 -34 -20 -25
-5 4 5 2 20 -3 33 -7 16 -10 18 -10 6 -1 -9 -4 -18 -8 -21 -5 -2 -2 -2 5 0 8
1 12 -3 9 -9 -2 -7 -12 -12 -22 -10 -10 2 -14 -1 -10 -7 3 -6 2 -11 -3 -11 -6
0 -13 7 -16 16 -8 22 -8 26 4 19 6 -4 7 1 3 11 -4 12 -3 15 5 10 7 -4 12 -2
12 4 0 7 -8 9 -19 5 -11 -3 -24 1 -32 11 -16 20 -20 56 -4 50 7 -2 18 0 26 6
11 8 11 9 -2 5 -9 -3 -22 -1 -30 3 -8 5 -19 4 -26 -2 -8 -7 -13 -7 -13 0 0 19
26 32 38 20 9 -9 15 -9 24 0 16 16 -7 33 -31 24 -13 -5 -14 -3 -4 10 7 8 10
18 6 21 -3 4 -2 7 4 7 6 0 9 9 6 21 -4 15 -8 17 -14 8 -4 -7 -5 -17 -3 -21 3
-4 -3 -5 -12 -1 -11 4 -13 8 -6 11 14 4 16 22 3 22 -5 0 -12 -8 -17 -17z m25
-49 c-6 -8 -8 -14 -4 -14 4 0 2 -7 -5 -15 -22 -27 -36 1 -17 33 5 6 5 17 1 23
-4 7 1 7 15 -1 18 -9 20 -14 10 -26z m36 -24 c3 -5 1 -10 -4 -10 -6 0 -11 5
-11 10 0 6 2 10 4 10 3 0 8 -4 11 -10z m-28 -52 c0 -13 -1 -17 -4 -10 -3 6 -9
10 -13 7 -5 -3 -12 0 -16 6 -4 7 -3 9 4 5 6 -3 13 -2 17 4 9 14 11 13 12 -12z
m-12 -38 c3 6 11 8 16 5 11 -7 12 -26 2 -24 -19 3 -30 -2 -30 -15 0 -8 8 -13
19 -11 10 2 18 -1 18 -6 0 -6 4 -8 9 -4 6 3 15 -5 22 -17 6 -13 8 -20 4 -16
-5 4 -14 3 -22 -3 -13 -11 -14 -10 -17 13 0 7 -9 14 -20 16 -13 3 -16 0 -11
-10 5 -7 4 -10 -1 -5 -5 5 -10 17 -10 28 -1 10 -2 20 -4 22 -1 1 -3 10 -5 20
-3 14 0 16 10 7 9 -8 15 -8 20 0z m50 -30 c3 -5 -1 -10 -9 -10 -9 0 -16 5 -16
10 0 6 4 10 9 10 6 0 13 -4 16 -10z"/>
<path d="M793 1338 c-11 -19 -13 -39 -1 -32 5 3 7 9 4 12 -3 3 -1 11 5 19 6 7
9 13 6 13 -3 0 -9 -6 -14 -12z"/>
<path d="M836 1143 c-6 -14 -5 -15 5 -6 7 7 10 15 7 18 -3 3 -9 -2 -12 -12z"/>
<path d="M1247 1389 c7 -7 15 -10 18 -7 3 3 -2 9 -12 12 -14 6 -15 5 -6 -5z"/>
<path d="M553 1365 c0 -8 4 -12 9 -9 4 3 8 9 8 15 0 5 -4 9 -8 9 -5 0 -9 -7
-9 -15z"/>
<path d="M1340 1375 c0 -2 6 -8 13 -14 10 -8 14 -7 14 2 0 8 -6 14 -14 14 -7
0 -13 -1 -13 -2z"/>
<path d="M1213 1357 c0 -8 6 -14 14 -14 9 0 10 4 2 14 -6 7 -12 13 -14 13 -1
0 -2 -6 -2 -13z"/>
<path d="M1496 1357 c6 -16 33 -31 42 -22 3 3 0 5 -7 5 -7 0 -9 5 -5 13 4 6 4
9 -1 5 -4 -4 -14 -3 -22 4 -11 8 -12 7 -7 -5z"/>
<path d="M2005 1350 c2 -17 10 -16 30 4 12 12 11 14 -9 12 -15 0 -23 -7 -21
-16z"/>
<path d="M1054 1348 c-3 -5 -3 -12 0 -15 3 -4 6 -1 6 5 0 7 4 12 10 12 5 0 7
-8 4 -17 -5 -14 -4 -15 4 -4 5 7 15 17 22 21 7 5 2 8 -14 8 -15 0 -29 -5 -32
-10z"/>
<path d="M1127 1349 c7 -7 15 -10 18 -7 3 3 -2 9 -12 12 -14 6 -15 5 -6 -5z"/>
<path d="M2052 1351 c-11 -7 -11 -9 0 -14 9 -3 15 1 15 9 0 8 -1 14 -1 14 -1
0 -7 -4 -14 -9z"/>
<path d="M553 1321 c0 -11 5 -18 9 -15 4 3 5 11 1 19 -7 21 -12 19 -10 -4z"/>
<path d="M995 1329 c-4 -6 -4 -13 -1 -16 3 -4 6 -1 6 6 0 7 5 9 12 5 7 -4 8
-3 4 4 -9 15 -13 15 -21 1z"/>
<path d="M1095 1330 c-3 -6 1 -7 9 -4 18 7 21 14 7 14 -6 0 -13 -4 -16 -10z"/>
<path d="M1295 1330 c3 -5 8 -10 11 -10 2 0 4 5 4 10 0 6 -5 10 -11 10 -5 0
-7 -4 -4 -10z"/>
<path d="M1335 1330 c3 -5 8 -10 11 -10 2 0 4 5 4 10 0 6 -5 10 -11 10 -5 0
-7 -4 -4 -10z"/>
<path d="M1470 1330 c0 -5 5 -10 10 -10 6 0 10 5 10 10 0 6 -4 10 -10 10 -5 0
-10 -4 -10 -10z"/>
<path d="M918 1318 c-7 -17 15 -19 29 -3 4 4 3 5 -4 2 -6 -4 -13 -2 -15 5 -3
8 -6 6 -10 -4z"/>
<path d="M1195 1321 c-3 -5 -2 -12 3 -15 5 -3 9 1 9 9 0 17 -3 19 -12 6z"/>
<path d="M2027 1323 c-10 -10 -8 -23 4 -23 5 0 8 4 5 9 -4 5 0 12 6 14 7 3 8
6 2 6 -6 1 -14 -2 -17 -6z"/>
<path d="M872 1303 c2 -10 10 -17 17 -15 9 2 11 -3 8 -13 -4 -8 -2 -15 4 -15
6 0 9 8 7 18 -2 9 -10 16 -17 14 -9 -2 -11 3 -8 13 4 8 2 15 -4 15 -6 0 -9 -8
-7 -17z"/>
<path d="M1053 1305 c0 -8 4 -12 9 -9 5 3 6 10 3 15 -9 13 -12 11 -12 -6z"/>
<path d="M1386 1309 c4 -8 30 -6 38 2 3 3 -5 5 -19 5 -13 0 -22 -3 -19 -7z"/>
<path d="M1504 1304 c-10 -8 -13 -13 -6 -9 7 4 21 1 30 -7 15 -11 15 -11 5 3
-7 9 -10 19 -6 22 13 13 -4 7 -23 -9z"/>
<path d="M1755 1310 c3 -5 8 -10 11 -10 2 0 4 5 4 10 0 6 -5 10 -11 10 -5 0
-7 -4 -4 -10z"/>
<path d="M2075 1300 c-4 -6 -11 -7 -17 -4 -7 4 -8 2 -4 -5 6 -9 11 -9 22 0 14
11 18 19 10 19 -3 0 -8 -5 -11 -10z"/>
<path d="M510 1292 c0 -5 7 -9 15 -9 8 0 12 4 9 9 -3 4 -9 8 -15 8 -5 0 -9 -4
-9 -8z"/>
<path d="M953 1285 c0 -8 4 -12 9 -9 5 3 6 10 3 15 -9 13 -12 11 -12 -6z"/>
<path d="M1575 1293 c3 -3 0 -12 -5 -18 -7 -9 -6 -14 3 -18 14 -5 17 28 4 38
-4 3 -5 2 -2 -2z"/>
<path d="M2116 1283 c-6 -14 -5 -15 5 -6 7 7 10 15 7 18 -3 3 -9 -2 -12 -12z"/>
<path d="M1010 1286 c0 -2 8 -10 18 -17 15 -13 16 -12 3 4 -13 16 -21 21 -21
13z"/>
<path d="M2005 1279 c-4 -5 -5 -9 -3 -10 15 -3 68 -6 68 -4 0 9 -60 22 -65 14z"/>
<path d="M585 1271 c-6 -11 13 -26 22 -17 4 3 1 6 -6 6 -7 0 -9 5 -6 10 3 6 4
10 1 10 -3 0 -7 -4 -11 -9z"/>
<path d="M979 1263 c-13 -16 -12 -17 4 -4 9 7 17 15 17 17 0 8 -8 3 -21 -13z"/>
<path d="M1500 1276 c0 -2 8 -10 18 -17 15 -13 16 -12 3 4 -13 16 -21 21 -21
13z"/>
<path d="M555 1260 c3 -5 8 -10 11 -10 2 0 4 5 4 10 0 6 -5 10 -11 10 -5 0 -7
-4 -4 -10z"/>
<path d="M1615 1261 c-3 -5 0 -13 6 -17 7 -4 9 -3 5 4 -3 5 0 13 6 15 9 4 10
6 1 6 -6 1 -14 -3 -18 -8z"/>
<path d="M860 1256 c0 -2 7 -7 16 -10 8 -3 12 -2 9 4 -6 10 -25 14 -25 6z"/>
<path d="M1135 1250 c-3 -5 -1 -10 4 -10 6 0 11 5 11 10 0 6 -2 10 -4 10 -3 0
-8 -4 -11 -10z"/>
<path d="M1547 1249 c7 -7 15 -10 18 -7 3 3 -2 9 -12 12 -14 6 -15 5 -6 -5z"/>
<path d="M844 1238 c3 -15 26 -23 26 -8 0 6 -4 9 -9 6 -5 -4 -12 -1 -14 4 -3
6 -4 5 -3 -2z"/>
<path d="M912 1236 c7 -8 15 -12 17 -11 5 6 -10 25 -20 25 -5 0 -4 -6 3 -14z"/>
<path d="M1645 1228 c4 -21 1 -28 -9 -28 -9 0 -20 -10 -26 -22 -10 -21 -10
-21 3 -5 17 20 28 22 25 5 -2 -7 -12 -18 -23 -25 -16 -9 -21 -9 -26 4 -3 9
-13 17 -22 19 -10 1 -15 -2 -11 -7 3 -5 9 -7 14 -4 7 4 21 -29 25 -60 1 -12
27 -7 36 7 4 6 12 7 19 3 7 -5 11 -4 7 1 -3 5 1 18 9 29 10 13 14 15 14 4 0
-11 2 -12 9 0 6 9 11 10 15 2 11 -17 27 -13 24 7 -2 11 3 17 16 17 26 0 31 19
9 36 -9 8 -14 10 -11 4 3 -5 0 -15 -7 -22 -10 -10 -14 -9 -19 2 -3 8 -10 15
-15 15 -14 0 -42 -30 -36 -40 3 -4 -2 -10 -9 -13 -10 -4 -13 0 -11 14 2 10 6
23 9 28 4 5 1 20 -4 33 -10 22 -10 22 -5 -4z m66 -35 c0 -5 2 -16 4 -26 3 -15
1 -16 -11 -6 -8 6 -14 8 -14 5 0 -4 -5 -4 -10 -1 -8 5 -7 11 1 21 12 15 29 19
30 7z m-51 -48 c0 -1 -13 -11 -28 -22 -25 -18 -29 -19 -29 -5 0 20 10 28 37
28 11 0 20 -1 20 -1z"/>
<path d="M1686 1182 c-3 -5 1 -9 9 -9 8 0 12 4 9 9 -3 4 -7 8 -9 8 -2 0 -6 -4
-9 -8z"/>
<path d="M533 1225 c0 -8 4 -12 9 -9 4 3 8 9 8 15 0 5 -4 9 -8 9 -5 0 -9 -7
-9 -15z"/>
<path d="M1106 1232 c-3 -5 1 -9 9 -9 8 0 12 4 9 9 -3 4 -7 8 -9 8 -2 0 -6 -4
-9 -8z"/>
<path d="M1480 1230 c-9 -6 -10 -10 -3 -10 6 0 15 5 18 10 8 12 4 12 -15 0z"/>
<path d="M1510 1230 c0 -5 5 -10 11 -10 5 0 7 5 4 10 -3 6 -8 10 -11 10 -2 0
-4 -4 -4 -10z"/>
<path d="M1585 1229 c-4 -6 -4 -13 -1 -16 3 -4 6 -1 6 6 0 7 5 9 10 6 6 -3 10
-1 10 4 0 14 -17 14 -25 0z"/>
<path d="M1551 1217 c-8 -10 -7 -14 2 -14 8 0 14 6 14 14 0 7 -1 13 -2 13 -2
0 -8 -6 -14 -13z"/>
<path d="M990 1205 c5 -7 8 -14 5 -17 -3 -2 2 -5 10 -5 10 0 12 4 5 12 -5 7
-8 14 -5 17 3 2 -2 5 -10 5 -10 0 -12 -4 -5 -12z"/>
<path d="M2070 1210 c0 -5 5 -10 10 -10 6 0 10 5 10 10 0 6 -4 10 -10 10 -5 0
-10 -4 -10 -10z"/>
<path d="M1075 1200 c-4 -6 -10 -8 -14 -6 -4 3 -13 0 -21 -5 -11 -7 -10 -8 8
-6 20 3 56 27 40 27 -4 0 -10 -5 -13 -10z"/>
<path d="M1116 1197 c3 -10 9 -15 12 -12 3 3 0 11 -7 18 -10 9 -11 8 -5 -6z"/>
<path d="M1509 1193 c-13 -16 -12 -17 4 -4 16 13 21 21 13 21 -2 0 -10 -8 -17
-17z"/>
<path d="M550 1195 c0 -5 5 -17 10 -25 5 -8 10 -10 10 -5 0 6 -5 17 -10 25 -5
8 -10 11 -10 5z"/>
<path d="M1175 1171 c-3 -5 -2 -12 3 -15 5 -3 9 1 9 9 0 17 -3 19 -12 6z"/>
<path d="M1525 1169 c-4 -6 -5 -12 -2 -15 2 -3 7 2 10 11 7 17 1 20 -8 4z"/>
<path d="M2055 1170 c3 -5 8 -10 11 -10 2 0 4 5 4 10 0 6 -5 10 -11 10 -5 0
-7 -4 -4 -10z"/>
<path d="M1056 1162 c-2 -4 -1 -14 4 -22 7 -11 9 -9 7 8 -1 24 -3 26 -11 14z"/>
<path d="M1494 1153 c2 -10 -2 -22 -8 -26 -7 -6 -6 -7 3 -5 16 5 24 35 11 43
-5 3 -7 -3 -6 -12z"/>
<path d="M1121 1144 c0 -11 3 -14 6 -6 3 7 2 16 -1 19 -3 4 -6 -2 -5 -13z"/>
<path d="M1020 1131 c0 -4 9 -12 20 -19 12 -7 20 -8 20 -2 0 5 -5 10 -11 10
-5 0 -8 4 -5 8 3 5 -1 9 -9 9 -8 0 -15 -3 -15 -6z"/>
<path d="M515 1119 c-4 -6 -5 -12 -2 -15 2 -3 7 2 10 11 7 17 1 20 -8 4z"/>
<path d="M553 1100 c1 -11 4 -20 8 -20 10 0 19 27 12 34 -12 12 -22 5 -20 -14z"/>
<path d="M1170 1101 c28 -23 40 -26 40 -11 0 6 -3 9 -7 8 -5 -1 -19 4 -33 11
l-25 12 25 -20z"/>
<path d="M2056 1103 c-6 -14 -5 -15 5 -6 7 7 10 15 7 18 -3 3 -9 -2 -12 -12z"/>
<path d="M1468 1103 c7 -3 16 -2 19 1 4 3 -2 6 -13 5 -11 0 -14 -3 -6 -6z"/>
<path d="M1267 1083 c4 -9 10 -10 24 -2 24 13 24 14 -5 14 -14 0 -22 -5 -19
-12z"/>
<path d="M1380 1095 c0 -7 30 -13 34 -7 3 4 -4 9 -15 9 -10 1 -19 0 -19 -2z"/>
<path d="M1315 1079 c-11 -16 -1 -19 13 -3 7 8 8 14 3 14 -5 0 -13 -5 -16 -11z"/>
<path d="M545 1059 c-4 -6 -5 -12 -2 -15 2 -3 7 2 10 11 7 17 1 20 -8 4z"/>
<path d="M2014 1049 c-10 -17 9 -30 26 -18 12 9 12 10 -4 5 -13 -5 -17 -2 -12
9 6 17 0 20 -10 4z"/>
<path d="M494 1028 c-3 -5 0 -7 8 -6 7 2 12 -4 10 -12 -2 -8 0 -11 4 -7 14 13
12 34 -3 34 -7 0 -16 -4 -19 -9z"/>
<path d="M550 1020 c0 -5 5 -10 10 -10 6 0 10 5 10 10 0 6 -4 10 -10 10 -5 0
-10 -4 -10 -10z"/>
<path d="M530 990 c0 -5 5 -10 10 -10 6 0 10 5 10 10 0 6 -4 10 -10 10 -5 0
-10 -4 -10 -10z"/>
<path d="M1990 996 c0 -2 7 -7 16 -10 8 -3 12 -2 9 4 -6 10 -25 14 -25 6z"/>
<path d="M1970 960 c-6 -11 -8 -20 -6 -20 3 0 10 9 16 20 6 11 8 20 6 20 -3 0
-10 -9 -16 -20z"/>
<path d="M496 948 c3 -5 10 -6 15 -3 13 9 11 12 -6 12 -8 0 -12 -4 -9 -9z"/>
<path d="M1996 948 c3 -5 10 -6 15 -3 13 9 11 12 -6 12 -8 0 -12 -4 -9 -9z"/>
<path d="M1828 934 c-4 -3 -14 -7 -25 -8 -10 -2 -18 -11 -18 -22 0 -10 -4 -25
-9 -33 -7 -10 -6 -12 4 -6 10 6 12 3 7 -11 -7 -18 -7 -18 7 -1 8 11 12 26 8
35 -5 15 -4 15 11 3 11 -9 17 -10 17 -2 0 6 -4 11 -10 11 -5 0 -10 5 -10 11 0
5 4 8 9 5 5 -3 11 1 15 9 6 16 3 19 -6 9z"/>
<path d="M495 919 c-4 -6 -5 -12 -2 -15 2 -3 7 2 10 11 7 17 1 20 -8 4z"/>
<path d="M1915 909 c-3 -4 2 -6 10 -5 21 3 28 13 10 13 -9 0 -18 -4 -20 -8z"/>
<path d="M1896 877 c3 -10 9 -15 12 -12 3 3 0 11 -7 18 -10 9 -11 8 -5 -6z"/>
<path d="M1635 850 c-4 -6 -15 -8 -24 -5 -10 3 -22 0 -27 -7 -12 -17 -11 -48
1 -47 6 0 9 7 7 14 -2 9 3 13 11 9 8 -3 21 6 31 20 9 15 14 26 12 26 -3 0 -8
-5 -11 -10z m-20 -19 c3 -6 -3 -9 -14 -8 -11 0 -17 5 -15 9 7 11 22 10 29 -1z"/>
<path d="M531 824 c0 -11 3 -14 6 -6 3 7 2 16 -1 19 -3 4 -6 -2 -5 -13z"/>
<path d="M1056 830 c9 -15 11 -22 17 -54 2 -10 12 -23 23 -28 17 -9 18 -8 2 5
-13 10 -15 16 -6 25 10 10 6 19 -16 40 -16 15 -25 20 -20 12z m32 -45 c-3 -3
-9 2 -12 12 -6 14 -5 15 5 6 7 -7 10 -15 7 -18z"/>
<path d="M560 820 c-8 -5 -12 -12 -9 -15 4 -3 12 1 19 10 14 17 11 19 -10 5z"/>
<path d="M1659 818 c-6 -18 -3 -46 3 -42 5 4 7 12 4 19 -3 8 0 16 7 19 9 3 9
5 0 5 -7 1 -13 0 -14 -1z"/>
<path d="M1114 799 c-4 -8 -3 -9 4 -5 7 4 12 2 12 -3 0 -6 -4 -11 -10 -11 -5
0 -10 -5 -10 -12 0 -6 3 -8 7 -5 3 4 12 -1 20 -11 13 -16 13 -15 5 3 -5 11 -7
25 -5 32 6 16 -14 26 -23 12z"/>
<path d="M1630 801 c0 -7 -5 -9 -12 -5 -7 5 -8 3 -3 -5 5 -9 10 -10 18 -2 6 6
8 14 4 18 -4 3 -7 1 -7 -6z"/>
<path d="M1735 801 c-3 -5 -2 -12 3 -15 5 -3 9 1 9 9 0 17 -3 19 -12 6z"/>
<path d="M530 790 c0 -5 5 -10 11 -10 5 0 7 5 4 10 -3 6 -8 10 -11 10 -2 0 -4
-4 -4 -10z"/>
<path d="M895 769 c-4 -6 -4 -13 -1 -16 3 -4 6 -1 6 6 0 7 5 9 12 5 7 -4 8 -3
4 4 -9 15 -13 15 -21 1z"/>
<path d="M939 778 c-6 -18 -3 -46 3 -42 5 4 7 12 4 19 -3 8 0 16 7 19 9 3 9 5
0 5 -7 1 -13 0 -14 -1z"/>
<path d="M1150 769 c0 -5 5 -7 10 -4 6 3 10 8 10 11 0 2 -4 4 -10 4 -5 0 -10
-5 -10 -11z"/>
<path d="M1190 761 c11 -22 13 -23 22 -7 5 10 7 20 4 23 -3 4 -6 1 -6 -7 0
-10 -3 -10 -17 1 -15 13 -15 12 -3 -10z"/>
<path d="M1550 770 c0 -5 5 -10 10 -10 6 0 10 5 10 10 0 6 -4 10 -10 10 -5 0
-10 -4 -10 -10z"/>
<path d="M506 748 c3 -5 10 -6 15 -3 13 9 11 12 -6 12 -8 0 -12 -4 -9 -9z"/>
<path d="M1160 741 c-7 -15 -7 -19 5 -17 8 1 18 6 22 11 5 4 2 5 -6 0 -11 -6
-13 -4 -8 8 9 23 0 21 -13 -2z"/>
<path d="M1385 740 c10 -11 13 -20 8 -20 -6 0 -14 -8 -17 -17 -6 -15 -4 -15
14 2 19 17 19 19 4 37 -10 10 -19 18 -22 18 -3 0 3 -9 13 -20z"/>
<path d="M1475 750 c3 -5 8 -10 11 -10 2 0 4 5 4 10 0 6 -5 10 -11 10 -5 0 -7
-4 -4 -10z"/>
<path d="M852 741 c5 -16 35 -24 43 -11 3 5 -3 7 -12 6 -10 -2 -22 2 -26 8 -6
7 -7 6 -5 -3z"/>
<path d="M1275 730 c-4 -11 -11 -17 -17 -14 -7 5 -8 2 -3 -6 6 -10 11 -9 22 5
13 19 17 35 9 35 -3 0 -8 -9 -11 -20z"/>
<path d="M1347 734 c3 -7 9 -14 14 -14 14 0 10 17 -5 23 -10 4 -13 1 -9 -9z"/>
<path d="M548 733 c6 -2 10 -9 7 -14 -4 -5 1 -6 10 -2 13 5 14 7 3 14 -7 5
-17 8 -23 8 -5 0 -4 -3 3 -6z"/>
<path d="M1026 728 c3 -5 10 -6 15 -3 13 9 11 12 -6 12 -8 0 -12 -4 -9 -9z"/>
<path d="M1087 729 c7 -7 15 -10 18 -7 3 3 -2 9 -12 12 -14 6 -15 5 -6 -5z"/>
<path d="M1550 729 c0 -5 5 -7 10 -4 6 3 10 8 10 11 0 2 -4 4 -10 4 -5 0 -10
-5 -10 -11z"/>
<path d="M509 713 c-13 -16 -12 -17 4 -4 9 7 17 15 17 17 0 8 -8 3 -21 -13z"/>
<path d="M835 710 c3 -5 8 -10 11 -10 2 0 4 5 4 10 0 6 -5 10 -11 10 -5 0 -7
-4 -4 -10z"/>
<path d="M1290 711 c0 -6 3 -10 8 -10 24 4 42 -2 36 -13 -5 -7 -3 -8 5 -3 15
9 5 20 -26 30 -14 4 -23 2 -23 -4z"/>
<path d="M1440 710 c-9 -6 -10 -10 -3 -10 6 0 15 5 18 10 8 12 4 12 -15 0z"/>
<path d="M1470 711 c0 -6 4 -13 10 -16 6 -3 7 1 4 9 -7 18 -14 21 -14 7z"/>
<path d="M1130 696 c0 -2 7 -7 16 -10 8 -3 12 -2 9 4 -6 10 -25 14 -25 6z"/>
<path d="M1296 677 c3 -10 9 -15 12 -12 3 3 0 11 -7 18 -10 9 -11 8 -5 -6z"/>
<path d="M910 666 c7 -7 13 -7 20 0 6 6 3 10 -10 10 -13 0 -16 -4 -10 -10z"/>
<path d="M850 650 c0 -5 5 -10 11 -10 5 0 7 5 4 10 -3 6 -8 10 -11 10 -2 0 -4
-4 -4 -10z"/>
<path d="M550 636 c0 -2 7 -7 16 -10 8 -3 12 -2 9 4 -6 10 -25 14 -25 6z"/>
<path d="M670 569 c0 -5 5 -7 10 -4 6 3 10 8 10 11 0 2 -4 4 -10 4 -5 0 -10
-5 -10 -11z"/>
</g>
</svg>
